<svg width="154" height="160" fill="none" xmlns="http://www.w3.org/2000/svg"><path d="M73.86 137.344c4.369-5.598 12.424-6.553 18.021-2.184 4.915 3.822 6.28 10.512 3.55 15.836l23.755 8.192 18.841-75.498c-2.594 0-5.325-.82-7.646-2.594-5.324-4.233-6.28-11.878-2.184-17.339 3.686-4.778 10.376-6.007 15.564-3.276l9.966-40.002L122.19 0l-19.523 14.608c1.228 3.96.682 8.465-2.048 11.878-4.233 5.46-12.15 6.553-17.748 2.457L30.58 67.17c1.093.41 2.185.956 3.14 1.638 4.37 3.414 5.189 9.83 1.776 14.336-3.414 4.368-9.83 5.188-14.336 1.774-2.594-2.047-3.959-5.051-3.959-8.055L0 89.424l41.23 42.87 30.173 10.375c.41-1.774 1.228-3.686 2.457-5.324z" fill="#EBB64A"/><path d="M122.463.137l-19.796 14.471c1.228 3.96.682 8.465-2.048 11.878-4.233 5.461-12.15 6.553-17.748 2.457L30.58 67.17c1.093.41 2.185.956 3.14 1.639 4.37 3.413 5.189 9.83 1.776 14.335-3.414 4.369-9.83 5.188-14.336 1.775-2.594-2.048-3.959-5.052-3.959-8.055L0 89.424l41.23 42.869L154 20.615 122.463.137z" fill="#EEC94D"/><path d="M80.14 70.447c-2.867 3.686-8.055 4.232-11.741 1.502-3.686-2.867-4.232-8.055-1.502-11.741 2.867-3.687 8.055-4.233 11.741-1.502 3.686 2.867 4.37 8.055 1.502 11.741zM134.886 26.622c-1.774 2.321-5.188 2.73-7.508.956-2.321-1.775-2.731-5.188-.956-7.51 1.775-2.32 5.188-2.73 7.509-.955 2.321 1.775 2.73 5.188.955 7.51zM57.34 107.719c-3.14 3.959-8.873 4.641-12.833 1.638-3.959-3.14-4.642-8.874-1.638-12.834 3.14-3.959 8.874-4.641 12.833-1.638 4.096 3.004 4.779 8.738 1.639 12.834z" fill="#EBB64A"/><path d="M115.363 118.231c-2.594 3.413-7.508 3.959-10.922 1.365-3.413-2.594-3.959-7.509-1.365-10.922 2.594-3.413 7.509-3.959 10.922-1.365 3.413 2.73 3.959 7.645 1.365 10.922z" fill="#CC9431"/></svg>