<svg width="174" height="161" fill="none" xmlns="http://www.w3.org/2000/svg"><path d="M60.398 1.587C53.817-.782 46.446-.519 39.997 2.51 26.308 8.958 3.144 21.725.247 34.492c-4.08 18.427 42.909 41.723 88.975 80.419 46.067 38.696 51.068 54.227 59.36 40.934 8.292-13.294 41.197-48.173 15.136-89.106C143.186 34.36 84.352 10.274 60.398 1.587z" fill="#ECB579"/><path d="M148.582 155.844c4.606-7.37 16.978-21.585 22.375-39.749-7.239 6.976-16.321 12.767-26.982 9.74-25.139-7.107-73.707-67.257-110.033-89.895-11.846-7.503-21.454-10.003-28.825-10.003-2.37 2.895-4.08 5.79-4.738 8.686-4.08 18.427 42.907 41.724 88.974 80.419 45.803 38.565 50.937 54.096 59.229 40.802z" fill="#DFA164"/><path d="M57.502 82.926c5.002-1.448 10.398-1.447 15.663-1.58h3.949c21.322-.526 38.696-7.238 49.093-19.084 2.238-2.632 4.212-5.396 6.186-8.16.79-1.185 1.58-2.37 2.501-3.554 1.843-2.632 3.949-5.133 6.055-7.634l-2.764-1.974c-2.106 2.5-4.08 5.002-6.055 7.634-.789 1.184-1.711 2.369-2.501 3.553-1.842 2.633-3.816 5.397-5.922 7.898-9.74 11.187-26.324 17.505-46.593 18.032h-3.817c-5.528 0-11.056.131-16.584 1.71-3.028.922-5.792 2.106-8.424 3.686 1.053.658 1.974 1.448 3.027 2.106a29.168 29.168 0 016.186-2.633zM32.89 52.127c2.368.658 4.738 1.185 6.975 1.843 11.451 2.895 24.876 5.264 37.512 1.053 9.476-3.16 17.373-9.609 24.481-16.321 4.475-4.08 8.686-8.424 12.898-12.635-1.053-.527-1.974-1.185-3.027-1.712-3.948 4.08-8.029 8.03-12.109 11.846-6.844 6.318-14.346 12.636-23.296 15.531-11.715 3.817-24.613 1.58-35.67-1.184-2.368-.527-4.606-1.185-6.975-1.843-9.608-2.5-19.611-5.133-29.746-5.133H1.96c.658 1.053 1.316 2.237 2.106 3.29 9.74.264 19.48 2.896 28.824 5.265z" fill="#F2D0A4"/><path d="M39.601 70.29c9.082-2.895 18.69-2.764 26.192-2.369.658 0 1.316.132 2.106.132 5.002.263 10.135.526 15.268-.527 6.45-1.447 11.977-5.133 17.11-8.687 8.029-5.66 16.321-11.977 22.507-20.532a48.16 48.16 0 003.422-5.528c-.921-.658-1.842-1.185-2.895-1.711a31.888 31.888 0 01-3.291 5.265c-5.791 8.16-13.82 14.346-21.717 19.742-4.87 3.422-10.135 6.845-16.057 8.16-4.607 1.054-9.609.79-14.347.527-.658 0-1.316-.131-2.106-.131-7.765-.395-17.9-.527-27.377 2.5-2.895.922-5.527 2.106-8.028 3.422.921.79 1.974 1.448 3.027 2.238 1.974-.921 4.08-1.843 6.186-2.5zM70.533 26.724c-6.186 2.764-13.952 2.764-23.691 0a84.395 84.395 0 01-26.72-13.162c-1.052.659-1.973 1.317-3.026 1.975 8.555 6.449 18.426 11.45 28.824 14.478 10.53 3.027 19.085 3.027 26.06-.132 7.503-3.422 12.373-9.871 16.585-16.847-1.053-.527-2.106-.921-3.16-1.316-4.08 6.317-8.291 11.977-14.872 15.004z" fill="#F2D0A4"/><path d="M27.625 8.825c7.897 4.343 16.716 8.16 26.06 9.082 4.212.394 7.766.131 10.793-1.053 4.475-1.58 8.292-5.002 11.056-9.609-1.053-.394-2.106-.92-3.159-1.316-2.369 3.686-5.396 6.45-8.95 7.634-2.5.921-5.528 1.185-9.345.79-8.028-.79-15.794-3.949-22.901-7.634-1.185.79-2.37 1.448-3.554 2.106zM81.325 36.07c-13.426 8.95-31.589 10.134-46.067 3.026-3.422-1.71-6.844-3.816-10.003-5.922-5.791-3.686-11.714-7.634-18.69-9.082a28.926 28.926 0 00-2.632 3.027c.658.132 1.184.132 1.842.264 6.318 1.316 11.846 4.87 17.637 8.555 3.29 2.106 6.844 4.343 10.398 6.186 15.531 7.634 35.01 6.317 49.357-3.29 7.502-5.002 13.557-12.11 17.374-20.27-1.053-.526-1.974-.921-3.027-1.448-3.554 7.634-9.082 14.347-16.19 18.953zM134.63 147.814c4.081-12.635 7.898-24.481 16.584-33.694 2.37-2.501 5.134-4.739 7.766-6.976 1.053-.921 2.106-1.843 3.29-2.764 3.949-3.422 7.634-7.108 11.188-10.924-.132-1.448-.395-2.896-.658-4.475-3.817 4.606-8.16 8.95-12.767 12.898-1.053.921-2.106 1.843-3.159 2.632-2.764 2.238-5.66 4.607-8.16 7.24-9.214 9.739-13.294 22.506-17.374 35.01-.527 1.711-1.053 3.422-1.711 5.133.921.922 1.843 1.711 2.764 2.501.79-2.237 1.448-4.475 2.237-6.581zM151.478 151.5c.79-1.184 1.711-2.369 2.633-3.685-.527-3.159-.79-6.45-.264-9.608.922-6.318 4.212-12.241 7.634-17.637 3.554-5.66 7.503-11.188 11.714-16.321.132-1.843.264-3.685.264-5.66-5.397 6.45-10.398 13.162-14.873 20.138-3.686 5.791-7.239 11.977-8.161 18.953-.526 4.738 0 9.345 1.053 13.82zM123.443 128.993c4.87-6.713 10.793-12.635 16.584-18.427 4.212-4.343 8.687-8.687 12.636-13.425 6.317-7.502 11.319-15.4 14.873-23.691a55.67 55.67 0 00-2.106-3.817c-3.422 8.687-8.687 17.374-15.4 25.27-3.948 4.607-8.292 9.082-12.504 13.294-5.791 5.923-11.845 11.977-16.847 18.822-2.501 3.422-4.606 6.975-6.186 10.398.921.789 1.711 1.711 2.633 2.5 1.579-3.685 3.685-7.37 6.317-10.924zM102.515 95.166c1.58-.79 3.291-1.579 4.87-2.5 9.082-4.475 18.427-9.082 26.192-15.794 7.503-6.45 13.689-14.873 18.032-24.613-.789-.79-1.711-1.58-2.632-2.37-4.212 9.74-10.135 18.032-17.637 24.482-7.502 6.45-16.716 10.924-25.534 15.4-1.58.789-3.291 1.579-4.87 2.5-7.766 3.948-15.663 8.424-22.244 14.346.922.658 1.711 1.448 2.633 2.106 6.317-5.659 13.82-9.871 21.19-13.556zM98.173 122.412c5.792-5.396 12.504-10.003 18.954-14.346 6.712-4.607 13.688-9.345 19.742-15.005 9.609-8.95 16.716-20.138 23.56-30.93-.658-.922-1.448-1.843-2.237-2.764-6.845 10.924-14.084 22.375-23.56 31.325-5.923 5.528-12.767 10.266-19.348 14.741-6.581 4.475-13.425 9.082-19.348 14.742l-.395.394c.79.527 1.711 1.185 2.632 1.843-.131 0-.131 0 0 0z" fill="#F2D0A4"/></svg>