<svg width="154" height="165" fill="none" xmlns="http://www.w3.org/2000/svg"><path d="M78.292 33.34c10.254-.128 14.098 4.99 27.052 5.96 1.532.119-.062 3.251.359 4.682.595 2.017-4.768 2.354-6.43 3.679-1.663 1.325-3.8 1.964-5.885 2.516-11.426 3.02-28.627 7.035-40.094 2.212-2.863-1.205-21.672-7.578-18.603-10.03 8.744-6.998 21.94-2.517 25.464-3.34 7.675-1.795 7.588-5.547 18.137-5.678z" fill="#AD3E3B"/><path d="M68.015 51.013c-14.619 1.314-35.931-19.02-53.03 1.117-17.1 20.136-12.382 68.825 2.363 89.194 14.746 20.369 48.613 23.483 70.381 22.034 25.422-1.697 62.014-16.342 62.412-56.965.342-35.538-11.662-66.234-43.63-66.165-19.47.034-14.555 8.63-38.496 10.785z" fill="#D34D46"/><path d="M124.828 44.411c7.282 12.177 10.334 29.063 10.158 47.218-.391 40.637-36.994 55.287-62.424 56.984-16.712 1.117-40.55-.46-57.397-10.466a44.372 44.372 0 002.085 3.188c14.75 20.376 48.628 23.491 70.403 22.042 25.43-1.697 62.033-16.346 62.43-56.984.258-27.675-6.962-52.408-25.255-61.982z" fill="#AD3E3B"/><path opacity=".27" d="M25.72 66.495c-4.001 5.251-5.918 11.863-5.99 18.438-.042 3.831.58 7.824 2.786 11.038 2.207 3.214 6.28 5.443 10.144 4.669.99-.197 1.956-.596 2.669-1.284 1.005-.97 1.393-2.37 1.747-3.704 1.65-6.278 3.478-12.825 8.015-17.547 2.164-2.255 4.863-3.993 6.947-6.323 2.083-2.33 3.52-5.577 2.477-8.525-1.613-4.551-8.646-6.725-13.095-6.346-6.141.513-12.178 4.972-15.7 9.584zM30.21 108.215c-2.9.136-5.146 3.011-4.97 5.825.177 2.82 2.374 5.305 5.06 6.42 1.423.589 3.141.826 4.43.023.931-.579 1.473-1.601 1.805-2.626.62-1.9.653-4.026-.174-5.863-.827-1.844-2.578-3.341-4.622-3.65l-1.53-.129z" fill="#fff"/><path d="M64.407 49.808s.983-17.964 3.726-26.855C70.87 14.068 80.179.077 80.179.077l6.885 3.225s-9.077 8.532-12.994 19.829c-2.732 7.892-5.572 26.8-5.572 26.8l-4.091-.123z" fill="#60443E"/><path d="M73.86 22.838S89.231 7.171 105.067 6.456c21.198-.95 38.14 4.494 38.14 4.494s-12.883 19.92-29.859 22.957c-16.97 3.037-41.085-5.395-41.085-5.395l1.595-5.674z" fill="#436B49"/><path opacity=".27" d="M99.25 15.09c-.202.248-.397.525-.407.84-.007.418.317.81.686 1.12 1.235 1.026 3.024 1.422 4.684 1.401 1.66-.014 3.252-.389 4.852-.678a45.64 45.64 0 0111.533-.538c1.379.11 2.794.28 4.092-.021 4.044-.938 1.867-4.54-.519-6.292-2.223-1.632-4.42-1.508-7.066-1.32-6.221.454-14.098.878-17.856 5.487z" fill="#fff"/></svg>