<svg width="1205" height="1230" fill="none" xmlns="http://www.w3.org/2000/svg"><path opacity=".7" d="M391.369 250.086c68.392 11.154 138.21-2.399 207.473-.947 69.264 1.452 145.396 23.157 181.008 82.56 33.428 55.671 23.137 131.235 62.097 183.141 41.185 54.893 122.334 63.747 169.833 113.283 55.9 58.34 47.73 150.188 60.37 229.989 18.23 114.818 85.19 215.188 150.51 311.358 15.43 22.8 36.81 48.38 64.1 44.72 29.93-4.02 42.69-39.5 49.31-68.9l158.22-704.485c23.69-105.62 45.88-222.927-7.96-316.872-62.75-109.514-202.09-143.255-326.17-166.573-161.677-30.382-323.418-60.774-485.083-91.223-89.069-16.77-179.294-33.572-269.746-27.334-99.488 6.897-272.902 51.252-250.702 176.752 20.316 114.577 122.292 215.828 236.74 234.531z" fill="#FF5F33"/></svg>