<svg width="618" height="510" fill="none" xmlns="http://www.w3.org/2000/svg"><path opacity=".25" d="M469.318 271.964c81.777-8.025 113.72-26.135 126.179-42.309l4.59-10.96-5.933-17.736c-66.415-58.047-268.314-58.421-268.314-58.421C21.212 147.939 5.443 199.96 5.443 199.96s.156 1.405.531 3.965c12.271 18.204 31.88 35.472 63.168 42.997 79.873 19.265 252.982 39.468 400.176 25.042z" fill="#fff"/><path d="M598.025 208.859c-15.581-23.138-43.589-32.63-68.913-40.936-45.65-14.957-93.58-23.044-141.385-27.041-62.824-5.245-125.586-1.374-188.223 4.247-29.101 2.623-58.203 5.745-87.117 10.179-23.325 3.56-46.806 7.713-69.412 14.676-8.15 2.498-16.3 5.402-23.887 9.336-5.246 2.748-10.648 6.058-14.301 10.835-8.805 11.522 2.186 25.604 10.429 33.941 13.614 13.802 33.036 20.827 51.302 26.104 20.67 5.995 41.966 9.711 63.23 12.958 8.056 1.218 16.112 2.373 24.168 3.622 41.061 6.433 82.902 8.431 124.399 9.742 47.774 1.499 95.61 1.406 143.384-.405 36.939-1.406 74.596-2.936 111.004-9.93 18.392-3.528 36.877-10.148 52.926-19.765 6.869-4.122 14.676-9.649 17.236-17.673 2.217-7.12-.874-13.989-4.84-19.89zm-7.244 19.577c-7.088 7.713-17.205 12.584-26.666 16.737-9.117 3.997-18.579 7.712-28.227 10.179-13.021 3.341-26.51 5.059-39.843 6.557-18.797 2.124-37.719 3.466-56.61 4.465-45.994 2.467-92.082 3.029-138.107 2.249-43.121-.719-86.368-2.405-129.239-7.182-8.181-.906-16.331-1.967-24.449-3.247-18.079-2.842-35.69-5.465-53.425-9.961-21.983-5.589-43.184-11.803-60.608-23.419-10.085-6.744-14.582-13.614-13.957-21.638.718-8.962 7.4-13.989 16.518-17.798 18.86-7.838 37.126-13.271 57.11-17.018 26.26-4.933 52.77-8.368 79.311-11.241 29.132-3.154 58.358-5.558 87.585-7.556 31.88-2.186 63.729-3.341 95.672-2.248 51.365 1.748 102.886 8.212 152.627 21.326 16.83 4.434 33.535 9.649 49.678 16.174 9.836 3.997 24.199 12.803 30.694 23.169 3.747 6.058 6.557 15.425 1.936 20.452z" fill="#D8D8D8"/><path opacity=".6" d="M293.491 492.222c47.389 0 85.806-12.386 85.806-27.665s-38.417-27.665-85.806-27.665c-47.389 0-85.805 12.386-85.805 27.665s38.416 27.665 85.805 27.665z" fill="#5D7F5E"/><path d="M600.336 202.831c-7.057-8.743-18.766-13.863-28.789-18.266-29.227-12.865-60.795-20.827-91.739-28.321-32.067-7.775-64.166-14.395-97.14-16.768-60.107-4.34-120.902.219-180.76 5.839-38.406 3.622-76.875 7.838-114.782 15.144-20.608 3.966-41.435 8.587-60.982 16.362-8.243 3.279-17.173 7.213-23.543 13.583-4.871 4.871-1.592 21.607-.593 26.978 3.715 20.046 8.618 39.905 14.55 59.389 16.8 55.237 42.466 110.13 83.62 151.503 26.916 27.072 60.545 48.367 95.891 62.512 33.661 13.489 69.912 20.046 106.196 18.953 66.727-2.03 132.705-28.352 185.974-68.007 24.543-18.267 46.494-39.968 64.229-64.917 18.673-26.291 34.847-52.051 43.465-83.089 4.59-16.549 9.305-36.72 11.272-53.8 2.592-21.545 1.249-27.009-6.869-37.095zM511.22 403.794c-21.139 21.607-45.65 39.686-71.941 54.518-28.79 16.237-59.671 29.008-91.864 36.564-33.347 7.837-68.194 9.992-102.136 4.653-35.502-5.559-69.037-19.266-98.638-39.625-26.51-18.235-48.586-40.904-66.51-67.57-16.08-23.918-28.695-50.084-38.936-76.969C27.83 280.362 17.9 243.548 12.593 206.391c-.156-1.124-.344-2.217-.469-3.341v-.125a6.807 6.807 0 01.563-1.874c2.123-4.621 6.744-7.493 10.74-9.898 11.679-6.994 25.074-11.209 38.126-14.863 27.103-7.587 55.018-12.209 82.839-16.018 40.655-5.589 81.622-9.336 122.589-12.053 29.382-1.967 58.858-3.247 88.303-2.904 33.629.375 65.884 3.248 98.639 10.242 22.825 4.871 45.526 10.273 67.976 16.612 14.738 4.153 29.414 8.618 43.652 14.269 2.498 1 5.996 2.467 7.494 3.123 1.187.531 2.342 1.093 3.497 1.655.656.312 1.312.655 1.999.999.281.125.531.281.812.406.062.031.218.125.562.312.937.531 1.904 1.093 2.841 1.655a.862.862 0 00.281.156c.094.063.156.094.281.187.469.313.937.656 1.405 1 .156.125.281.187.344.249a.57.57 0 01.156.125c.312.281.656.531.968.812.999.843.687.5 1.53 1.561 7.65 9.555 8.618 23.7 2.248 34.223-.094.156-.094.312-.062.499-3.872 33.098-12.365 65.666-26.666 95.86-13.052 27.603-30.725 52.801-52.021 74.534z" fill="#D8D8D8"/><path d="M292.054 43.617c6.339-14.363 2.217-32.005-12.178-39.718-13.863-7.4-33.816-4.434-41.716 10.335-3.684 6.87-1.342 18.891-12.052 19.328-5.246.22-10.492-1.967-15.707-2.56-4.59-.5-9.304.094-13.489 2.03-10.772 4.996-11.178 17.486-9.648 27.759.687 4.62-16.05 2.997-9.898 17.267.062.468 7.619 7.494 7.712 7.962-.999 8.462 5.683 6.588 8.368 14.738 5.34 16.299 19.547 29.445 37.127 30.288 9.336.437 18.578-2.998 26.541-7.619 7.65-4.434 15.55-10.085 21.42-16.736 6.057-6.838 22.981-12.521 21.514-21.764-1.312-8.337-4.153-19.39-27.478-19.515-1.468 0-2.717-1.187-3.966-1.967 2.373-2.124 5.059-3.092 8.088-4.403 6.869-3.029 12.333-8.525 15.362-15.425zm-23.793 19.859c-1.312.28-.874-.156-.312-.437.125.124.437.406.312.437zm-61.076-1.374s0 .031 0 0c-.125-.063-.249-.156-.374-.219l.093-.28c.281.187.437.405.281.499zm61.326 1.311c-.094-.062-.188-.093-.25-.156a1.993 1.993 0 00-.312-.218c.53-.281 1.186-.406.562.374z" fill="#4D6D0F"/><path d="M70.203 208.265s-48.211 11.147-53.488-19.797c-4.247-24.761 31.537-10.647 12.864-36.251-21.201-29.133 11.585-61.919 30.507-53.738 18.953 8.181 20.015 9.492 37.47 0 17.454-9.492 53.425-21.514 60.607 6.557 7.181 28.102 27.009 35.752 59.795 36.033 32.786.281 66.072 19.547 55.736 46.026-10.335 26.478 9.305-10.024 32.505-9.024 23.2.999 49.335 41.903 33.535 73.909-15.768 32.036-47.367 32.785-69.131 55.767-21.764 22.981-122.963 16.174-131.425-1.436-8.462-17.611-75.283-56.424-68.975-98.046z" fill="#4D6D0F"/><path d="M135.307 56.325c-.812-7.837-3.528-16.799-10.335-21.483-6.12-4.184-14.957-3.31-20.983.563-6.964 4.465-11.335 12.052-11.74 20.327-.344 7.088 2.684 13.52 7.493 18.422 1.374 4.09 3.841 7.713 8.087 9.649 7.682 3.56 16.424-.531 21.389-6.745 4.653-5.839 6.87-13.24 6.089-20.733zM330.835 53.89c-.031-.124-.094-.28-.125-.405-.25-.687-.531-1.405-.874-2.03-.063-.125-.125-.219-.187-.312a19.06 19.06 0 00-1.343-1.78c-.312-.375-.687-.687-1.062-1-.343-.468-.718-.936-1.155-1.28-.656-.561-1.374-1.186-2.186-1.623-.78-.406-1.623-.843-2.467-1.03-.374-.094-.811-.126-1.124-.157-.312-.03-.811-.156-1.217-.156-.75 0-1.53.094-2.249.281-.062.031-.156.031-.218.063-.593.25-1.155.5-1.749.718-.031.031-.093.031-.125.062a9.173 9.173 0 00-1.748 1.374c-.531.531-1.031 1.155-1.374 1.842-.812 1.593-.937 2.311-1.093 4.09a1.71 1.71 0 000 .563c.062.843.187 1.686.344 2.498.062.312.187.624.249.937.063.593.125 1.436.313 2.092.218.718.562 1.56.968 2.248 1.061 1.748 2.31 2.841 3.903 4.028.218.156.468.312.718.468.812.437 1.686.843 2.591 1.062.406.094.906.125 1.312.187.375.063.874.156 1.28.156a9.745 9.745 0 001.124-.156c.25-.031.781-.062 1.124-.156a7.95 7.95 0 002.061-.843 11.387 11.387 0 001.686-1.28c.031-.031.031-.063.063-.063.531-.5.999-1.03 1.374-1.655.062-.125.156-.25.218-.374a23.8 23.8 0 00.874-2.061c.094-.281.157-.562.219-.843.125-.78.343-1.842.281-2.717-.062-.936-.156-1.873-.406-2.747zM493.984 309.276s3.903 22.076 21.577 20.515c17.673-1.561 16.861-12.958 24.698-17.205 7.838-4.246 15.706.625 21.389-5.121 5.683-5.745 13.271-26.291-2.529-34.971-15.768-8.65-14.8-24.199 3.872-25.324 18.672-1.124 21.701-30.475-3.872-30.818-21.108-.281 2.092-15.113 13.895-11.335 39.874 12.677 56.33-29.039 34.503-53.987-19.796-22.638-32.536.312-47.961-11.054-15.425-11.366 11.272-14.957 3.435-31.818-8.462-18.204-47.586-22.294-57.61 32.942-10.023 55.205-97.421 58.515-84.494 112.253 12.927 53.706 73.097 55.923 73.097 55.923z" fill="#4D6D0F"/><path d="M312.788 437.61s7.962 37.626 35.065 27.634c27.103-9.992 25.635-31.818 44.339-14.551 18.704 17.267 36.408-1.186 37.126-19.39.718-18.173 20.546-21.795 43.371-15.581 22.826 6.244 31.725-22.826 27.665-32.131-4.059-9.305.157-20.421 11.273-19.984 11.116.438 24.355-9.211 16.83-31.942-7.525-22.701-97.702-76.688-122.214-77.625-24.511-.937-62.762-16.143-87.679 1.873-24.917 18.017-62.574 69.663-62.574 69.663s-.812 124.18 56.798 112.034z" fill="#4D6D0F"/><path d="M255.99 193.746s-44.526-18.547-29.944-43.995c14.582-25.448 35.471-10.304 33.878-29.882-1.592-19.547-10.023 3.715 0-28.727 9.618-31.069 37.189-35.565 63.98-13.114 28.196 23.637 27.228-10.898 48.055-17.05 20.827-6.15 32.567 9.337 30.537 23.919-2.029 14.582 10.929-39.53 39.437-35.752 28.508 3.778 2.092 40.28 30.757 40.717 28.664.437 53.675-25.823 57.297 12.146 1.998 21.077-16.924 19.89-11.741 45.776 5.215 25.885 28.353 28.757 14.676 54.143-13.676 25.386-52.052 33.254-34.066 55.674 17.985 22.419-29.788 81.09-47.43 57.89-17.642-23.168-52.739-31.256-58.609-9.211-5.87 22.045-69.475 3.778-70.943-32.099-1.436-35.877-22.232-107.819-65.884-80.435z" fill="#60891F"/><path d="M66.393 206.36s-6.744-7.494-23.762.593c-20.046 9.555-13.177 28.602-4.652 34.878 8.556 6.245 18.516 5.777 13.989 28.071-4.528 22.326 1.998 28.508 18.204 24.449 16.174-4.059 3.153 10.991 0 21.171-3.154 10.148 1.998 27.852 35.533 14.238 33.536-13.614 8.931 28.602 3.31 39-5.62 10.397-7.213 38 16.737 41.934 23.949 3.966 66.446-10.21 68.226 7.932 1.811 18.11-5.746 52.395 19.546 56.142s29.976 3.965 36.346-7.088c6.37-11.054 10.304-5.683 18.516 0 8.212 5.682 14.02-1.562 15.206-11.835 1.187-10.273 19.297.469 45.276-13.426 26.011-13.895 55.768-80.029 32.974-76.938-22.763 3.091-31.912-11.647-19.766-26.697 12.147-15.05 2.748-49.585-20.015-49.991-22.762-.406-35.409 11.116-56.235 27.134-20.827 16.019 8.024-11.397 9.024-42.153.999-30.787-34.66-68.32-64.573-45.557-34.035 25.886-70.1 21.014-71.973 9.149-1.811-11.834-63.23-47.961-71.91-31.006z" fill="#60891F"/><path d="M149.326 302.22l.156-10.742 50.116-21.732s19.89 21.295 46.525 7.338c26.634-13.958 32.192-41.623 32.192-41.623s2.093-.468 6.526-1.186c13.146-2.217 31.569-1.999 35.597 4.028 19.109 28.508-14.676 57.359-25.324 76.406-10.647 19.079-38.468 49.367-63.479 46.432-25.011-2.904-63.418-1.062-82.309-58.921z" fill="#D6D64C"/><path d="M245.03 302.377c31.693-13.24 38.687-48.368 39.78-68.07-3.997.718-6.526 1.186-6.526 1.186s-5.558 27.696-32.193 41.623c-26.634 13.957-46.525-7.338-46.525-7.338l-10.772 4.684c10.398 17.86 29.164 39.218 56.236 27.915z" fill="#9BA231"/><path d="M124.533 105.035l10.273 3.123 6.963 54.175s-25.979 13.208-19.953 42.684c6.027 29.445 31.069 42.465 31.069 42.465s-.156 2.155-.656 6.589c-1.53 13.27-6.807 30.881-13.739 33.098-32.692 10.46-51.02-30.007-66.384-45.526-15.362-15.518-36.751-50.646-27.009-73.846 9.742-23.231 18.61-60.67 79.436-62.762z" fill="#D6D64C"/><path d="M97.868 196.929c3.934 34.129 35.721 50.584 54.362 57.11.437-4.028.656-6.588.656-6.588s-25.074-12.99-31.069-42.466c-5.995-29.476 19.953-42.684 19.953-42.684l-1.499-11.647c-20.047 4.996-45.776 17.111-42.403 46.275z" fill="#9BA231"/><path d="M140.238 332.757l8.18-6.963 49.367 23.418s-2.935 29.039 25.136 39.906c28.071 10.866 52.582-3.185 52.582-3.185s1.717 1.28 5.183 4.121c10.336 8.462 22.326 22.451 20.453 29.477-8.868 33.191-52.864 26.728-74.253 31.287-21.389 4.527-62.543 3.559-76.813-17.205-14.269-20.796-40.966-48.523-9.835-100.856z" fill="#D6D64C"/><path d="M203.187 404.917c30.881 15.144 61.95-2.716 77.5-14.894a277.185 277.185 0 00-5.184-4.122s-24.511 14.051-52.582 3.185-25.136-39.905-25.136-39.905l-10.616-5.027c-6.62 19.609-10.336 47.836 16.018 60.763z" fill="#9BA231"/><path d="M283.965 98.603l8.337-3.872 35.44 30.476s-8.962 23.293 11.709 38.594c20.702 15.3 44.089 9.242 44.089 9.242s1.124 1.436 3.373 4.559c6.619 9.305 13.333 23.574 10.21 28.914-14.832 25.386-49.647 10.117-68.32 9.024-18.672-1.093-52.363-11.179-59.451-31.537-7.12-20.359-22.888-49.241 14.613-85.4z" fill="#D6D64C"/><path d="M319.593 172.356c22.045 19.484 51.708 11.74 67.29 5.214a212.962 212.962 0 00-3.373-4.558s-23.387 6.057-44.089-9.243c-20.702-15.3-11.709-38.594-11.709-38.594l-7.619-6.557c-9.867 14.676-19.328 37.095-.5 53.738z" fill="#9BA231"/><path d="M374.486 313.804l-3.216-10.242 40.779-36.314s25.573 14.02 46.494-7.588c20.92-21.576 17.548-49.616 17.548-49.616s1.842-1.093 5.808-3.185c11.803-6.214 29.351-11.803 35.065-7.338 27.072 21.108 4.028 59.046-.156 80.498-4.153 21.451-21.077 58.921-45.744 63.948-24.605 5.089-60.514 18.891-96.578-30.163z" fill="#D6D64C"/><path d="M465.443 283.984c25.979-22.513 21.607-58.047 16.486-77.125a205.318 205.318 0 00-5.807 3.185s3.403 28.04-17.549 49.616c-20.951 21.576-46.493 7.587-46.493 7.587l-8.774 7.807c15.456 13.739 39.936 28.164 62.137 8.93z" fill="#9BA231"/><path d="M494.358 215.822s-12.584-19.547 10.647-28.883c23.263-9.336 54.487 16.705 54.55 31.693.062 14.988-13.489 22.669-30.694 20.328-17.174-2.311-33.598-21.514-34.503-23.138z" fill="#422532"/><path d="M552.436 219.789c-.187.343.25-.344 0 0-.156.25-.343.5-.499.749a19.694 19.694 0 01-1.967 2.311l-.125.125c-.125.125-.25.25-.375.343-.25.219-.468.406-.718.625-.562.468-1.187.874-1.811 1.249-.094.062-.187.093-.25.156.094-.063.094-.031-.062.031-.125.063-.281.156-.406.219-.375.187-.781.374-1.187.531-.812.312-1.436.468-2.248.624-.781.125-1.374.781-1.28 1.624.093.749.843 1.436 1.623 1.28 4.996-.874 9.586-4.278 12.053-8.681.375-.686-.062-1.623-.749-1.935-.843-.313-1.593.062-1.999.749z" fill="#7C596B"/><path d="M544.286 221.255c1.967 2.529 3.903 5.09 5.683 7.744l.656 1.03c.156.281-.125-.281-.063-.094.031.063.063.094.094.157.031.093.094.187.094.281.187.78 1.249 1.092 1.904.811.812-.312.999-1.124.812-1.904-.156-.594-.593-1.156-.905-1.686-.5-.781-1.062-1.562-1.593-2.342a261.296 261.296 0 00-3.497-4.715c-.281-.344-.531-.718-.812-1.062-.468-.624-1.405-.78-2.061-.312-.624.531-.78 1.468-.312 2.092z" fill="#7C596B"/><path d="M383.105 126.145s-24.855 4.746-24.792-22.513c.062-27.26 39.031-48.149 54.175-42.122 15.144 6.057 17.392 22.856 8.024 39.218-9.367 16.393-35.409 25.167-37.407 25.417z" fill="#422532"/><path d="M410.74 69.16c.281.344-.25-.374 0 0 .187.25.374.531.562.812a20.138 20.138 0 011.53 2.935c.156.344-.032-.093.093.188.063.187.125.343.188.53.125.313.218.656.312 1 .219.749.406 1.53.531 2.341.031.125.031.219.062.344-.031-.125 0-.094 0 .094.031.156.031.343.031.5.032.468.063.936.032 1.404-.032.937-.094 1.655-.281 2.53-.188.843.249 1.717 1.093 1.967.78.218 1.779-.25 1.967-1.093 1.155-5.402-.406-11.397-3.872-15.706-.531-.687-1.686-.594-2.248-.031-.625.593-.531 1.53 0 2.185z" fill="#7C596B"/><path d="M408.928 77.997c3.341-.936 6.714-1.873 10.117-2.591.437-.094.874-.157 1.312-.25.343-.063-.344.031-.125 0 .062 0 .125 0 .187-.031h.312c.843.124 1.593-.812 1.593-1.593 0-.968-.718-1.467-1.593-1.592-.655-.094-1.405.125-2.06.25-1 .187-1.999.437-2.998.686-2.061.5-4.122 1.062-6.183 1.624l-1.405.375c-.812.218-1.374 1.093-1.124 1.936.219.843 1.124 1.405 1.967 1.186z" fill="#7C596B"/><path d="M133.464 215.04s-39.593 20.234-44.776 49.585c-5.184 29.351-2.436 48.461 15.55 78.062 17.985 29.601 46.93 35.065 75.251 38.719 28.321 3.653 60.014-24.387 60.014-24.387l-95.922-146.725s-1.593-1.186-10.117 4.746z" fill="#D61D10"/><path d="M183.831 319.487s-14.082 2.748-12.177 8.899c1.904 6.151 10.679 3.965 12.177-8.899zM172.776 304.373s-15.3 0-14.582 6.838c.75 6.807 10.367 6.339 14.582-6.838zM160.723 291.227s-13.958-2.092-14.208 4.246c-.281 6.308 8.587 7.182 14.208-4.246zM152.887 276.147s-12.272-6.183-14.426-.406c-2.186 5.745 5.745 9.242 14.426.406zM153.793 262.657s-9.243-10.148-13.333-5.527c-4.091 4.59 2.061 10.679 13.333 5.527zM193.197 329.791s-10.46 6.931-6.869 11.272c3.591 4.34 9.96-.344 6.869-11.272z" fill="#F36C2B"/><path d="M195.32 358.549c11.147-1.998 28.445-8.961 36.97-12.583l-8.119-12.428c-11.772 5.058-32.661 13.271-41.622 12.209-12.802-1.53-20.734-3.966-36.002-20.171-15.301-16.206-15.769-33.754-16.706-49.897-.78-13.802 22.295-35.846 29.071-41.998l-10.773-16.486c-7.588 5.121-21.139 14.894-29.57 24.355-12.177 13.708-12.49 35.94-12.802 46.619-.312 10.678 10.96 29.85 25.885 48.054 14.926 18.204 48.43 25.074 63.668 22.326z" fill="#E2481E"/><path d="M155.32 228.279l-16.955 9.149c2.498 5.558 6.12 11.741 10.929 15.425 10.366 7.931 7.931 39.593 22.544 46.931 14.613 7.306 15.831 22.544 23.762 28.04 2.779 1.936 7.994 9.898 13.583 19.421a1635.784 1635.784 0 0016.892-10.71L155.32 228.279z" fill="#E2481E"/><path d="M380.483 220.441s31.474 31.412 60.981 27.26c29.508-4.153 46.837-12.646 69.444-38.906 22.576-26.229 18.86-55.456 13.583-83.527-5.277-28.07-41.716-49.553-41.716-49.553L372.864 212.292c-.032 0-.687 1.873 7.619 8.149z" fill="#D61D10"/><path d="M465.038 140.255s6.963 12.521 12.209 8.837c5.246-3.747.468-11.397-12.209-8.837zM454.048 155.43s4.715 14.551 10.991 11.741c6.307-2.779 2.841-11.803-10.991-11.741zM445.274 170.95s2.342 13.926 8.431 12.209c6.12-1.686 4.215-10.367-8.431-12.209zM433.346 183.065s-2.092 13.583 4.059 13.864c6.183.281 7.057-8.337-4.059-13.864zM420.263 186.375s-6.776 11.927-1.124 14.394c5.62 2.467 9.523-5.277 1.124-14.394zM471.94 128.172s9.836 7.806 12.865 3.06c2.998-4.809-3.435-9.399-12.865-3.06z" fill="#F36C2B"/><path d="M498.636 117.244c-5.339-9.992-17.329-24.293-23.387-31.256l-9.305 11.585c8.431 9.617 22.732 26.947 24.48 35.814 2.498 12.646 2.623 20.921-8.056 40.499-10.71 19.547-27.228 25.448-42.309 31.287-12.865 4.996-40.967-10.117-48.929-14.676l-12.334 15.332c7.244 5.651 20.702 15.518 32.286 20.608 16.799 7.338 38.063.781 48.274-2.248 10.241-2.998 25.011-19.672 37.688-39.468 12.74-19.828 8.899-53.832 1.592-67.477z" fill="#E2481E"/><path d="M387.07 195.556l13.927 13.301c4.527-4.09 9.273-9.461 11.303-15.175 4.34-12.302 35.221-19.765 37.657-35.939 2.435-16.175 16.549-22.045 19.328-31.256.968-3.248 6.963-10.679 14.27-18.891-4.341-3.654-10.367-8.618-15.425-12.74l-81.06 100.7z" fill="#E2481E"/><path d="M271.54 219.973s29.945-33.566 24.106-63.105c-5.839-29.538-15.425-46.587-43.184-67.913-27.759-21.327-57.048-15.894-85.119-8.993-28.071 6.932-47.68 44.932-47.68 44.932l144.071 103.26s1.936.531 7.806-8.181z" fill="#D61D10"/><path d="M185.859 139.944s12.271-7.743 8.212-12.833c-4.059-5.09-11.522.156-8.212 12.833zM201.814 150.156s14.426-5.59 11.241-11.772c-3.185-6.151-12.084-2.186-11.241 11.772zM217.958 158.149s13.926-3.153 11.865-9.211c-2.06-6.058-10.71-3.653-11.865 9.211zM230.886 169.515s13.832 1.342 13.739-4.903c-.063-6.244-8.806-6.65-13.739 4.903zM234.944 182.536s12.428 6.182 14.582.343c2.186-5.839-5.839-9.336-14.582-.343zM173.244 133.669s7.338-10.367 2.342-13.146c-4.965-2.779-9.243 3.966-2.342 13.146z" fill="#F36C2B"/><path d="M160.755 107.315c-9.774 5.964-23.544 18.86-30.226 25.355l12.209 8.743c9.243-9.056 25.948-24.481 34.753-26.729 12.615-3.247 20.983-3.84 41.342 5.839 20.358 9.68 27.228 26.042 33.972 40.936 5.777 12.708-7.9 41.935-12.052 50.209l16.174 11.585c5.277-7.619 14.488-21.764 18.953-33.754 6.464-17.393-1.374-38.469-4.996-48.617-3.622-10.179-21.264-24.137-41.997-35.846-20.671-11.678-54.799-5.87-68.132 2.279z" fill="#E2481E"/><path d="M246.092 215.508l12.646-14.832c-4.403-4.34-10.055-8.836-15.956-10.554-12.677-3.684-21.951-34.44-38.407-35.97-16.455-1.53-23.168-15.457-32.661-17.736-3.341-.812-11.147-6.401-19.89-13.364-3.434 4.59-8.118 10.96-11.99 16.268l106.258 76.188z" fill="#E2481E"/><path d="M277.223 389.024s14.613 47.211 45.744 58.452 52.582 11.897 88.397-2.154c35.815-14.051 47.306-44.683 56.704-75.002 9.399-30.319-15.269-70.318-15.269-70.318l-178.855 77.094c0-.031-1.592 1.467 3.279 11.928z" fill="#D61D10"/><path d="M401.122 353.739s.344 15.925 7.432 15.019c7.088-.905 6.369-10.928-7.432-15.019zM382.483 362.981s-2.904 16.768 4.715 17.268c7.587.468 8.899-10.148-4.715-17.268zM365.776 373.661s-4.933 14.894 1.936 16.361c6.901 1.53 9.524-7.993-1.936-16.361zM347.792 379.375s-9.087 12.24-3.185 15.706c5.901 3.465 11.21-4.497 3.185-15.706zM333.209 375.814s-12.865 8.213-8.587 13.552c4.278 5.339 12.084-.219 8.587-13.552zM414.175 345.464s5.62 12.771 11.053 9.68c5.433-3.122 1.499-10.991-11.053-9.68z" fill="#F36C2B"/><path d="M446.086 348.619c-.062-12.583-4.403-32.848-6.744-42.84l-15.176 6.526c3.279 13.832 8.337 38.281 5.465 47.867-4.091 13.708-8.275 21.92-28.946 35.596-20.67 13.646-39.936 10.867-57.797 8.775-15.237-1.78-34.971-31.225-40.436-39.812l-20.077 8.649c4.184 9.305 12.271 25.979 21.014 37.002 12.677 15.955 36.97 20.514 48.586 22.856 11.615 2.373 34.753-6.339 57.516-19.203 22.794-12.833 36.689-48.211 36.595-65.416z" fill="#E2481E"/><path d="M295.863 367.635l6.776 20.296c6.557-1.686 14.02-4.465 18.953-9.055 10.648-9.836 44.87-1.155 55.643-15.768 10.772-14.614 27.696-13.052 35.19-20.671 2.654-2.686 12.365-6.87 23.825-11.147-2.373-5.839-5.715-13.833-8.525-20.515l-131.862 56.86z" fill="#E2481E"/><path d="M364.277 284.859s-2.404 25.198-28.539 17.517c-26.135-7.681-35.284-50.959-25.261-63.823 10.054-12.865 26.791-10.273 39.905 3.278 13.114 13.552 14.239 40.998 13.895 43.028z" fill="#422532"/><path d="M317.348 242.329c.406-.156-.437.156 0 0 .312-.094.625-.219.937-.312 1.062-.312 2.123-.5 3.216-.656.375-.062-.094 0 .219-.031.187-.031.374-.031.562-.031.343-.032.687-.032 1.03-.032.812 0 1.593.032 2.373.157.125 0 .219.031.344.031-.125-.031-.094-.031.093.031.156.031.344.062.5.094.468.093.905.218 1.343.343.905.281 1.561.562 2.341.968.75.406 1.718.25 2.186-.5.437-.686.25-1.779-.499-2.185-4.84-2.623-11.054-2.81-16.175-.687-.78.312-1.03 1.436-.656 2.154.469.812 1.406 1 2.186.656z" fill="#7C596B"/><path d="M325.311 246.576c.031-3.466.062-6.963.343-10.429.032-.437.094-.874.125-1.311.031-.344-.062.312-.031.125.031-.063.031-.125.031-.188.031-.093.063-.218.094-.312.343-.781-.312-1.749-1.062-1.967-.905-.281-1.623.281-1.967 1.062-.281.624-.281 1.373-.343 2.06a52.292 52.292 0 00-.188 3.06 220.682 220.682 0 00-.187 6.401c0 .469 0 .968-.031 1.437 0 .874.687 1.623 1.561 1.623.874 0 1.655-.686 1.655-1.561z" fill="#7C596B"/><path d="M511.626 363.607s-23.512 9.368-28.601-17.392c-5.121-26.759 29.195-54.674 45.244-51.614 16.018 3.06 21.389 19.141 15.3 37.001-6.089 17.861-30.007 31.412-31.943 32.005z" fill="#422532"/><path d="M528.02 302.439c.312.281-.344-.312 0 0l.687.687a23.4 23.4 0 012.06 2.592c.219.312-.031-.094.125.187.094.156.188.312.313.499.187.313.343.594.499.906.375.718.687 1.436.968 2.186.031.093.063.218.125.312-.031-.125-.031-.094.031.094.063.156.094.312.156.499.125.437.219.906.313 1.374.156.937.218 1.655.187 2.529-.031.875.562 1.655 1.468 1.718.811.062 1.686-.594 1.717-1.468.125-5.527-2.561-11.116-6.745-14.707-.655-.562-1.748-.281-2.217.375-.624.749-.343 1.655.313 2.217z" fill="#7C596B"/><path d="M527.863 311.462c3.123-1.561 6.245-3.122 9.461-4.465.406-.156.812-.312 1.249-.468.313-.125-.312.094-.125.031.063 0 .125-.031.188-.062a1.11 1.11 0 01.312-.063c.874-.031 1.405-1.093 1.28-1.873-.187-.937-.999-1.312-1.873-1.28-.656.031-1.374.374-1.967.624-.968.375-1.874.812-2.811 1.218a193.082 193.082 0 00-5.776 2.748l-1.312.655a1.61 1.61 0 00-.749 2.124c.375.811 1.374 1.186 2.123.811z" fill="#7C596B"/><path d="M159.068 377.127s-.687-25.292 26.198-20.858c26.884 4.434 41.279 46.244 32.879 60.233-8.399 13.988-25.354 13.489-39.999 1.623-14.675-11.834-19.172-38.968-19.078-40.998z" fill="#422532"/><path d="M210.871 413.566c-.375.219.406-.187 0 0-.281.125-.593.281-.906.406-1.03.437-2.061.75-3.122 1.031-.375.093.093 0-.219.062-.187.031-.374.062-.562.125-.343.062-.687.125-1.03.156a20.13 20.13 0 01-2.373.156h-.344-.093c-.157 0-.344-.031-.5-.031a9.78 9.78 0 01-1.374-.187c-.937-.157-1.624-.375-2.435-.687-.812-.313-1.749-.032-2.124.78-.343.75-.031 1.811.781 2.124 5.121 1.998 11.334 1.436 16.112-1.281.749-.437.843-1.561.406-2.217-.531-.78-1.468-.843-2.217-.437z" fill="#7C596B"/><path d="M202.44 410.35c.406 3.466.781 6.932.937 10.398.031.437.031.874.031 1.342 0 .344.031-.343 0-.124v.187c0 .094-.031.218-.062.312-.25.812.531 1.718 1.311 1.842.937.157 1.593-.468 1.842-1.311.188-.625.094-1.405.094-2.061a49.133 49.133 0 00-.187-3.06c-.156-2.123-.375-4.246-.594-6.37-.062-.468-.093-.968-.156-1.436-.093-.843-.874-1.53-1.748-1.436-.875.062-1.561.874-1.468 1.717z" fill="#7C596B"/><path d="M149.139 138.103s25.261-1.53 21.733 25.479c-3.529 27.009-44.87 42.778-59.109 34.847-14.27-7.931-14.332-24.886-2.935-39.937 11.303-15.019 38.25-20.389 40.311-20.389z" fill="#422532"/><path d="M114.418 191.09c-.219-.374.219.406 0 0a11.483 11.483 0 01-.437-.874 21.537 21.537 0 01-1.155-3.091c-.125-.375.031.093-.063-.219-.031-.187-.094-.375-.125-.562-.062-.343-.156-.687-.187-1.03-.125-.781-.219-1.593-.219-2.373v-.344-.094c0-.156 0-.343.031-.499.032-.468.063-.937.125-1.405.125-.937.313-1.624.594-2.467.281-.812-.032-1.749-.843-2.092-.75-.312-1.811.031-2.092.843-1.843 5.215-1.062 11.366 1.811 16.081.437.749 1.592.812 2.217.312.749-.531.78-1.468.343-2.186z" fill="#7C596B"/><path d="M117.354 182.566c-3.435.499-6.901.999-10.367 1.28-.437.031-.874.062-1.343.062-.343 0 .344.031.125 0h-.187c-.094 0-.219-.031-.312-.031-.843-.219-1.686.593-1.78 1.374-.125.937.531 1.561 1.374 1.78.656.187 1.405.062 2.061.031a51.067 51.067 0 003.06-.281c2.123-.25 4.246-.531 6.338-.812.469-.062.968-.125 1.437-.218.843-.125 1.498-.906 1.374-1.78-.094-.875-.937-1.53-1.78-1.405z" fill="#7C596B"/><path d="M452.331 202.677c6.307-9.555 17.767-22.17 30.194-21.577 4.996.25 9.18 3.06 12.49 6.62 4.059 4.434 8.025 8.493 13.614 10.96 8.899 3.966 18.86 3.06 27.603-.843 7.431-3.341 15.674-9.305 18.485-17.299.843-2.373-2.936-3.403-3.779-1.03-2.591 7.4-11.303 12.927-18.235 15.581-10.647 4.091-22.107 2.529-30.569-5.402-3.934-3.684-6.869-8.056-11.834-10.491-3.403-1.686-7.182-2.311-10.96-1.843-7.681.937-14.394 5.746-19.859 10.929-3.903 3.716-7.556 7.9-10.522 12.428-1.406 2.092 1.998 4.059 3.372 1.967z" fill="#EDFFDE"/><path d="M549.096 186.907s-17.611-42.684-.562-46.431c17.017-3.747 9.211 38.094 9.211 38.094s30.6-17.954 40.499-6.182c9.867 11.803-12.241 32.161-49.148 14.519z" fill="#E2FFA9"/><path d="M298.958 457.937c-6.37-10.023-14.145-27.384-6.37-38.406 3.497-4.934 8.93-6.214 14.269-8.181 4.747-1.749 9.212-4.34 12.771-7.994 6.558-6.744 9.305-16.205 8.993-25.448-.25-7.619-2.279-17.08-8.118-22.513-1.843-1.717-4.59 1.031-2.748 2.748 5.214 4.871 6.869 13.645 6.994 20.483.188 9.899-3.559 19.672-11.928 25.386-8.493 5.777-19.859 5.527-24.917 15.831-3.653 7.463-2.279 16.362.219 23.918 1.842 5.589 4.34 11.147 7.494 16.112 1.311 2.155 4.683.188 3.341-1.936z" fill="#EDFFDE"/><path d="M323.873 362.983s-46.15-1.311-42.653-18.391c3.498-17.08 38.532 7.119 38.532 7.119s-3.935-35.253 10.866-39.499c14.8-4.247 24.418 24.23-6.745 50.771z" fill="#F9FFEB"/><path d="M126.439 266.437c.156-10.679-1.967-23.606-9.243-31.849-5.62-6.401-13.738-7.338-21.638-5.277-10.773 2.81-21.077.343-28.384-8.306-4.996-5.902-9.804-15.987-7.65-23.918.656-2.436-3.09-3.466-3.778-1.031-1.873 6.87.812 14.926 4.028 20.952 4.31 8.056 11.585 14.801 20.702 16.799 5.402 1.187 10.773.656 16.08-.718 4.247-1.093 8.744-1.561 12.834.375 6.714 3.185 9.742 10.991 11.335 17.766 1.186 4.934 1.811 10.117 1.748 15.207 0 2.529 3.903 2.529 3.966 0z" fill="#EDFFDE"/><path d="M56.933 203.769s35.72-23.449 24.667-35.19c-11.053-11.772-26.915 24.324-26.915 24.324s-14.02-29.695-27.728-25.854c-13.739 3.872-7.463 30.975 29.976 36.72z" fill="#F9FFEB"/><path d="M199.474 115.904c10.804 1.53 24.417 1.186 33.535-5.496 7.182-5.246 8.275-13.114 7.275-21.42-1.28-10.741 2.967-20.515 12.241-26.291 6.619-4.153 16.955-7.494 24.636-4.34 2.31.968 3.341-2.81 1.03-3.779-6.37-2.623-14.582-.999-20.764 1.374-8.244 3.123-15.519 8.93-19.016 17.174-1.998 4.746-2.623 9.992-2.123 15.112.468 4.81 1.217 9.524-1.156 14.02-3.59 6.776-11.896 9.118-18.984 9.961-3.654.437-7.401.5-11.085.312-1.155-.062-2.311-.156-3.466-.249-.312-.032-1.936-.219-1.124-.125-2.404-.375-3.466 3.403-.999 3.747z" fill="#EDFFDE"/><path d="M270.635 54.828s18.797 38.376 31.849 28.883c13.052-9.492-20.764-29.726-20.764-29.726s31.224-10.21 29.101-24.293c-2.123-14.113-29.788-11.272-40.186 25.136z" fill="#F9FFEB"/><path d="M207.998 239.709c-1.093.156.094 0 .344-.031.655-.063 1.342-.125 1.998-.188a55.326 55.326 0 016.432-.093c5.09.187 10.867.936 15.051 4.121 5.808 4.403 3.872 11.928 3.466 18.204-.469 7.588-.75 15.706 1.936 22.982 3.185 8.618 10.179 13.863 18.578 16.986 2.373.874 3.373-2.904 1.031-3.778-8.212-3.06-14.551-8.493-16.768-17.174-2.03-7.993-1.124-16.58-.5-24.73.5-6.276-.374-11.99-5.807-15.893-4.465-3.216-10.211-4.247-15.581-4.59a56.637 56.637 0 00-11.273.375c-2.435.405-1.373 4.152 1.093 3.809z" fill="#EDFFDE"/><path d="M218.927 237.429s-2.561 21.046-12.365 26.51c-9.774 5.433-18.673-.343-19.859-6.432-1.187-6.089 4.964-18.423 18.61-20.078 0 0-21.983-6.369-20.546-17.361 1.717-12.989 29.32-12.365 34.16 17.361z" fill="#DEFF9F"/><path d="M116.448 370.726c.593 7.837 2.716 16.611 7.619 22.887 3.341 4.247 8.149 6.651 13.614 5.995 3.997-.499 7.9-2.123 11.771-3.184 4.309-1.218 8.712-2.311 13.209-2.717 10.866-.999 19.14 3.56 24.979 12.677 1.343 2.092 4.746.156 3.373-1.967-4.309-6.713-10.18-12.302-18.173-14.082-7.65-1.686-15.581-.063-23.013 1.936-6.089 1.623-13.864 5.901-19.796 1.811-4.247-2.967-6.37-8.369-7.744-13.146-.937-3.31-1.686-6.744-1.936-10.148-.187-2.56-4.09-2.56-3.903-.062z" fill="#EDFFDE"/><path d="M120.413 381.999s20.046-6.963 23.294-17.673c3.247-10.71-4.309-18.172-10.492-18.048-6.182.125-16.955 8.743-15.675 22.42 0 0-10.897-20.14-21.326-16.393-12.334 4.402-5.84 31.256 24.199 29.694z" fill="#DEFF9F"/><path d="M492.612 364.858c-6.62 7.932-20.796 20.047-29.976 9.212-6.307-7.432-11.647-15.831-20.046-21.139-8.431-5.34-17.923-5.028-26.978-1.405-2.311.905-1.312 4.683 1.03 3.778 10.96-4.372 20.733-2.81 29.351 5.277 3.966 3.715 7.37 7.993 10.711 12.271 2.654 3.404 5.089 6.932 9.242 8.587 10.866 4.371 22.95-6.027 29.414-13.802 1.623-1.935-1.124-4.714-2.748-2.779z" fill="#EDFFDE"/><path d="M485.836 374.256s-12.303-17.268-8.743-27.884c3.559-10.617 14.02-12.334 18.984-8.618 4.965 3.684 8.743 16.924-.218 27.353 0 0 20.514-10.117 26.884-1.031 7.494 10.71-13.333 28.852-36.907 10.18z" fill="#DEFF9F"/><path d="M478.154 275.961c-6.87 1.124-17.549 1.436-23.95-3.154-5.995-4.278-4.184-11.928-3.965-18.235.25-7.556.281-15.519-2.529-22.669-3.373-8.556-10.523-13.708-19.016-16.612-2.373-.812-3.404 2.967-1.031 3.779 8.275 2.81 14.801 8.056 17.236 16.674 2.28 7.962 1.593 16.58 1.156 24.761-.312 6.276.687 11.896 6.182 15.675 4.497 3.091 10.273 3.965 15.613 4.184 3.778.156 7.618-.032 11.365-.656 2.436-.406 1.374-4.153-1.061-3.747z" fill="#EDFFDE"/><path d="M467.225 278.554s1.998-21.108 11.615-26.822c9.649-5.715 18.673-.157 20.015 5.901 1.343 6.026-4.465 18.547-18.048 20.577 0 0 22.139 5.777 21.015 16.799-1.343 13.021-28.977 13.114-34.597-16.455z" fill="#F9FFEB"/><path d="M328.493 199.833c1.936-5.09 5.465-10.585 9.368-14.738 3.466-3.716 7.712-6.807 12.615-8.275 5.058-1.499 9.711.094 14.738-.499 15.643-1.843 13.301-26.885 12.146-37.626-.562-5.371-1.374-10.773-2.529-16.05-.531-2.435-4.309-1.405-3.778 1.031 2.623 11.709 4.496 24.979 2.373 36.876-.562 3.185-1.468 6.651-3.622 9.149-2.373 2.81-5.496 2.935-8.899 2.529-9.992-1.218-19.016 2.842-25.823 10.086-4.403 4.683-8.087 10.429-10.367 16.455-.874 2.373 2.904 3.372 3.778 1.062z" fill="#EDFFDE"/><path d="M374.457 130.983s-60.17-6.557-43.434-31.443c18.142-26.978 41.529 21.17 41.529 21.17s-7.275-38.968 11.272-40.436c20.078-1.592 30.257 18.735-9.367 50.709z" fill="#DEFF9F"/><path d="M258.738 328.324a2.719 2.719 0 01-2.717 2.717 2.718 2.718 0 010-5.434 2.7 2.7 0 012.717 2.717zM125.064 319.457a6.87 6.87 0 11-13.739 0 6.87 6.87 0 016.87-6.869 6.87 6.87 0 016.869 6.869zM402.464 306.31a4.56 4.56 0 100-9.119 4.56 4.56 0 000 9.119zM436.281 431.303a6.97 6.97 0 01-6.963 6.963 6.97 6.97 0 01-6.964-6.963 6.97 6.97 0 016.964-6.964 6.97 6.97 0 016.963 6.964zM472.687 406.603c0 .687-.562 1.249-1.249 1.249a1.253 1.253 0 01-1.249-1.249c0-.687.562-1.249 1.249-1.249s1.249.562 1.249 1.249zM562.992 272.493a3.872 3.872 0 11-7.744 0 3.851 3.851 0 013.872-3.872 3.852 3.852 0 013.872 3.872zM406.275 132.575a3.777 3.777 0 10.001-7.555 3.777 3.777 0 00-.001 7.555zM522.242 170.233a3.985 3.985 0 01-3.997 3.997 3.985 3.985 0 01-3.997-3.997 3.985 3.985 0 013.997-3.997 3.985 3.985 0 013.997 3.997zM361.904 247.577a5.73 5.73 0 01-5.746 5.745 5.73 5.73 0 01-5.745-5.745 5.73 5.73 0 015.745-5.745 5.75 5.75 0 015.746 5.745zM364.807 323.608a3.245 3.245 0 01-3.247 3.248 3.246 3.246 0 01-3.248-3.248 3.245 3.245 0 013.248-3.247c1.78-.031 3.247 1.436 3.247 3.247zM283.622 377.47a5.964 5.964 0 100-11.928 5.964 5.964 0 000 11.928zM242.718 205.641a6.343 6.343 0 01-6.338 6.339 6.343 6.343 0 01-6.339-6.339 6.343 6.343 0 016.339-6.338 6.342 6.342 0 016.338 6.338zM162.908 201.957a5.024 5.024 0 01-5.027 5.027 5.024 5.024 0 01-5.027-5.027 5.024 5.024 0 015.027-5.027 5.024 5.024 0 015.027 5.027zM80.881 305.405a5.337 5.337 0 01-5.34 5.339 5.337 5.337 0 01-5.339-5.339 5.338 5.338 0 015.34-5.34 5.338 5.338 0 015.339 5.34zM50.468 252.01a3.905 3.905 0 01-3.903 3.904 3.905 3.905 0 01-3.903-3.904 3.905 3.905 0 013.903-3.903c2.155-.031 3.903 1.718 3.903 3.903zM86.845 203.486a2.966 2.966 0 11-5.933 0 2.965 2.965 0 012.966-2.966c1.624-.031 2.967 1.311 2.967 2.966zM258.862 450.693c0 4.527-3.685 8.212-8.212 8.212-4.528 0-8.212-3.685-8.212-8.212 0-4.528 3.684-8.213 8.212-8.213 4.527 0 8.212 3.685 8.212 8.213zM318.564 474.83a3.56 3.56 0 10-.002-7.12 3.56 3.56 0 00.002 7.12zM199.286 461.122c0 1.218-1 2.186-2.186 2.186-1.218 0-2.186-1-2.186-2.186 0-1.218.999-2.186 2.186-2.186 1.186 0 2.186.968 2.186 2.186zM86.907 271.776a5.683 5.683 0 01-11.366 0 5.664 5.664 0 015.683-5.683 5.683 5.683 0 015.683 5.683zM412.112 170.452a5.504 5.504 0 01-5.495 5.495 5.504 5.504 0 01-5.496-5.495 5.504 5.504 0 015.496-5.496 5.504 5.504 0 015.495 5.496zM589.095 216.663a4.398 4.398 0 01-4.402 4.403 4.398 4.398 0 01-4.403-4.403 4.398 4.398 0 014.403-4.403 4.397 4.397 0 014.402 4.403zM159.068 56.48c0 4.028-3.278 7.307-7.306 7.307-4.028 0-7.307-3.279-7.307-7.307 0-4.028 3.279-7.306 7.307-7.306a7.296 7.296 0 017.306 7.306zM48.345 125.924a2.852 2.852 0 01-2.841 2.842 2.852 2.852 0 01-2.842-2.842 2.852 2.852 0 012.842-2.841 2.852 2.852 0 012.841 2.841zM351.348 30.596a7.955 7.955 0 01-7.962 7.962 7.955 7.955 0 01-7.962-7.962 7.955 7.955 0 017.962-7.963 7.955 7.955 0 017.962 7.963zM361.217 56.045a2.519 2.519 0 01-2.53 2.529 2.519 2.519 0 01-2.529-2.53 2.519 2.519 0 012.529-2.528 2.519 2.519 0 012.53 2.529zM306.23 65.536a5.17 5.17 0 01-5.183 5.184 5.17 5.17 0 01-5.184-5.184 5.171 5.171 0 015.184-5.183 5.19 5.19 0 015.183 5.183zM464.101 61.008a4.531 4.531 0 01-4.528 4.527 4.53 4.53 0 01-4.527-4.527 4.53 4.53 0 014.527-4.528 4.531 4.531 0 014.528 4.528zM564.364 144.754c-2.029 3.528-6.557 4.746-10.085 2.716-3.529-2.029-4.746-6.557-2.717-10.085 2.03-3.529 6.557-4.746 10.086-2.717 3.559 2.03 4.746 6.557 2.716 10.086zM584.692 160.335a2.226 2.226 0 01-2.217 2.217c-1.218 0-2.217-1-2.217-2.217 0-1.218.999-2.217 2.217-2.217 1.218.031 2.217 1.03 2.217 2.217z" fill="#F8AB1D"/><path opacity=".25" d="M469.316 271.964c-147.162 14.426-320.303-5.777-400.144-25.011-31.319-7.556-50.897-24.792-63.168-42.996C9.688 229.498 33.7 371.821 121.94 444.324c97.14 79.842 207.77 74.065 300.101 29.82 92.331-44.245 158.622-122.838 172.142-241.305l1.342-3.185c-12.489 16.175-44.432 34.285-126.21 42.31z" fill="#D8D8D8"/><path d="M598.024 208.859c-.624-.937-1.311-1.842-1.967-2.716-1.124 2.81-2.591 5.495-4.309 8.024 1.842 5.121 2.28 10.742-.937 14.239-7.088 7.712-17.204 12.583-26.665 16.736-9.118 3.997-18.579 7.713-28.228 10.179-13.02 3.341-26.509 5.059-39.842 6.558-18.798 2.123-37.72 3.466-56.611 4.465-45.994 2.467-92.081 3.029-138.107 2.248-43.121-.718-86.367-2.404-129.239-7.182-8.181-.905-16.33-1.967-24.449-3.247-18.079-2.842-35.69-5.464-53.425-9.961-21.982-5.589-43.184-11.803-60.607-23.418-7.213-4.809-11.522-9.711-13.177-15.019-2.248-1.53-5.121-3.56-6.027-4.403-4.371-4.122-6.276-10.335-8.493-15.769-.062-.124-.093-.281-.156-.405-.28.343-.624.624-.905.999-8.806 11.522 2.185 25.604 10.429 33.941 13.614 13.801 33.035 20.827 51.302 26.104 20.67 5.995 41.966 9.711 63.23 12.958 8.056 1.218 16.112 2.373 24.168 3.622 41.06 6.432 82.902 8.431 124.399 9.742 47.774 1.499 95.61 1.405 143.384-.406 36.939-1.405 74.596-2.935 111.004-9.929 18.391-3.529 36.876-10.148 52.926-19.765 6.869-4.122 14.675-9.649 17.236-17.674 2.123-7.15-.968-14.019-4.934-19.921z" fill="#D8D8D8"/></svg>