<svg width="154" height="160" viewBox="0 0 154 160" fill="none" xmlns="http://www.w3.org/2000/svg">
<path d="M73.8599 137.344C78.2287 131.746 86.2837 130.791 91.8812 135.16C96.7961 138.982 98.1614 145.672 95.4309 150.996L119.186 159.188L138.027 83.6897C135.433 83.6897 132.702 82.8706 130.381 81.0957C125.057 76.8635 124.101 69.2181 128.197 63.7571C131.883 58.9787 138.573 57.75 143.761 60.4805L153.727 20.4787L122.19 0L102.667 14.6082C103.895 18.5674 103.349 23.0727 100.619 26.4858C96.3865 31.9468 88.4681 33.039 82.8706 28.9433L30.5816 67.1702C31.6738 67.5798 32.766 68.1259 33.7216 68.8085C38.0904 72.2216 38.9096 78.6383 35.4965 83.1436C32.0833 87.5124 25.6667 88.3316 21.1613 84.9184C18.5674 82.8706 17.2021 79.867 17.2021 76.8635L0 89.4238L41.2305 132.293L71.4025 142.668C71.8121 140.894 72.6312 138.982 73.8599 137.344Z" fill="#EBB64A"/>
<path d="M122.463 0.136719L102.667 14.6084C103.895 18.5676 103.349 23.0729 100.619 26.486C96.3865 31.947 88.4681 33.0392 82.8706 28.9435L30.5816 67.1704C31.6738 67.58 32.766 68.1261 33.7216 68.8087C38.0904 72.2218 38.9096 78.6385 35.4965 83.1438C32.0833 87.5126 25.6667 88.3318 21.1613 84.9186C18.5674 82.8708 17.2021 79.8672 17.2021 76.8637L0 89.424L41.2305 132.293L154 20.6154L122.463 0.136719Z" fill="#EEC94D"/>
<path d="M80.1401 70.447C77.2731 74.1331 72.0852 74.6792 68.399 71.9487C64.7128 69.0817 64.1667 63.8938 66.8972 60.2076C69.7643 56.5214 74.9522 55.9753 78.6384 58.7058C82.3245 61.5728 83.0072 66.7608 80.1401 70.447Z" fill="#EBB64A"/>
<path d="M134.886 26.6221C133.112 28.9431 129.698 29.3526 127.378 27.5778C125.057 25.803 124.647 22.3899 126.422 20.0689C128.197 17.748 131.61 17.3384 133.931 19.1133C136.252 20.8881 136.661 24.3012 134.886 26.6221Z" fill="#EBB64A"/>
<path d="M57.3407 107.719C54.2006 111.678 48.4666 112.36 44.5074 109.357C40.5481 106.217 39.8655 100.483 42.8691 96.5235C46.0091 92.5643 51.7432 91.8816 55.7024 94.8852C59.7981 97.8887 60.4808 103.623 57.3407 107.719Z" fill="#EBB64A"/>
<path d="M115.363 118.231C112.769 121.644 107.855 122.19 104.441 119.596C101.028 117.002 100.482 112.087 103.076 108.674C105.67 105.261 110.585 104.715 113.998 107.309C117.411 110.039 117.957 114.954 115.363 118.231Z" fill="#CC9431"/>
</svg>
