<svg width="154" height="165" viewBox="0 0 154 165" fill="none" xmlns="http://www.w3.org/2000/svg">
<path d="M78.2924 33.3405C88.5457 33.2122 92.3896 38.3301 105.344 39.3008C106.876 39.4189 105.282 42.5511 105.703 43.9818C106.298 45.9995 100.935 46.3355 99.2724 47.6607C97.6097 48.9859 95.4734 49.6248 93.3883 50.1772C81.9616 53.1979 64.7612 57.2118 53.2945 52.3895C50.4308 51.1839 31.6217 44.8114 34.6913 42.3588C43.4347 35.3613 56.6301 39.8417 60.155 39.0195C67.8296 37.2244 67.7427 33.4725 78.2924 33.3405Z" fill="#AD3E3B"/>
<path d="M68.0146 51.0128C53.3962 52.3274 32.0836 31.9936 14.9844 52.1297C-2.11473 72.2659 2.60312 120.955 17.3484 141.324C32.0936 161.693 65.9609 164.807 87.7292 163.358C113.151 161.661 149.743 147.016 150.141 106.393C150.483 70.8552 138.479 40.1586 106.511 40.228C87.0404 40.2623 91.9556 48.8571 68.0146 51.0128Z" fill="#D34D46"/>
<path d="M124.828 44.4115C132.11 56.5882 135.162 73.4741 134.986 91.6287C134.595 132.266 97.9921 146.916 72.5622 148.613C55.8495 149.73 32.0112 148.153 15.1648 138.147C15.8337 139.27 16.5309 140.334 17.2503 141.335C32.0004 161.711 65.8783 164.826 87.6533 163.377C113.083 161.68 149.686 147.031 150.083 106.393C150.341 78.718 143.121 53.985 124.828 44.4115Z" fill="#AD3E3B"/>
<path opacity="0.27" d="M25.7207 66.4953C21.7187 71.7463 19.8022 78.3584 19.7306 84.9333C19.6883 88.7643 20.3094 92.7567 22.5159 95.9707C24.7225 99.1848 28.7968 101.414 32.6597 100.64C33.6493 100.443 34.6155 100.044 35.3285 99.356C36.3335 98.3861 36.722 96.9869 37.0762 95.652C38.7258 89.3741 40.554 82.8269 45.0914 78.105C47.2551 75.8497 49.9538 74.1119 52.0375 71.782C54.1213 69.452 55.5575 66.2048 54.5146 63.2573C52.9018 58.7059 45.8686 56.5317 41.4199 56.9107C35.2788 57.424 29.2422 61.883 25.7207 66.4953Z" fill="white"/>
<path opacity="0.27" d="M30.2095 108.215C27.31 108.351 25.0639 111.226 25.2403 114.04C25.4169 116.86 27.6137 119.345 30.3009 120.46C31.7232 121.049 33.4414 121.286 34.7309 120.483C35.6613 119.904 36.2028 118.882 36.5348 117.857C37.1548 115.957 37.1881 113.831 36.3613 111.994C35.5342 110.15 33.7826 108.653 31.7393 108.344L30.2095 108.215Z" fill="white"/>
<path d="M64.4066 49.8078C64.4066 49.8078 65.3899 31.844 68.1328 22.9532C70.8698 14.0683 80.1794 0.0774788 80.1794 0.0774788L87.0635 3.30226C87.0635 3.30226 77.9868 11.8335 74.0701 23.1306C71.3376 31.0233 68.4976 49.9303 68.4976 49.9303L64.4066 49.8078Z" fill="#60443E"/>
<path d="M73.8591 22.838C73.8591 22.838 89.2316 7.17135 105.068 6.45635C126.266 5.50587 143.208 10.9501 143.208 10.9501C143.208 10.9501 130.325 30.8707 113.349 33.9073C96.3783 36.9439 72.2636 28.5124 72.2636 28.5124L73.8591 22.838Z" fill="#436B49"/>
<path opacity="0.27" d="M99.2491 15.0892C99.0477 15.3379 98.853 15.6151 98.843 15.9301C98.8356 16.3481 99.1597 16.7391 99.5291 17.0494C100.764 18.0761 102.553 18.4719 104.213 18.4514C105.873 18.4366 107.465 18.062 109.065 17.7731C112.803 17.1086 116.706 16.9286 120.598 17.2354C121.977 17.3443 123.392 17.5158 124.69 17.2135C128.734 16.2761 126.557 12.6734 124.171 10.9224C121.948 9.28965 119.751 9.41417 117.105 9.60147C110.884 10.0563 103.007 10.48 99.2491 15.0892Z" fill="white"/>
</svg>
