<svg width="174" height="161" viewBox="0 0 174 161" fill="none" xmlns="http://www.w3.org/2000/svg">
<path d="M60.3977 1.58737C53.8168 -0.781764 46.4461 -0.51853 39.9968 2.5087C26.3084 8.95802 3.14353 21.7251 0.247915 34.4921C-3.83227 52.9187 43.1557 76.2152 89.2222 114.911C135.289 153.607 140.29 169.138 148.582 155.845C156.874 142.551 189.779 107.672 163.718 66.7387C143.186 34.3605 84.3523 10.2742 60.3977 1.58737Z" fill="#ECB579"/>
<path d="M148.582 155.844C153.188 148.474 165.56 134.259 170.957 116.095C163.718 123.071 154.636 128.862 143.975 125.835C118.836 118.728 70.2684 58.578 33.9416 35.9396C22.0959 28.4373 12.4877 25.9365 5.11705 25.9365C2.74791 28.8321 1.03687 31.7278 0.378775 34.6234C-3.70141 53.05 43.2865 76.3465 89.3531 115.042C135.156 153.607 140.29 169.138 148.582 155.844Z" fill="#DFA164"/>
<path d="M57.5024 82.9264C62.5039 81.4785 67.9003 81.4786 73.165 81.3469C74.4812 81.3469 75.7974 81.3469 77.1136 81.3469C98.4358 80.8205 115.81 74.1079 126.207 62.2622C128.445 59.6298 130.419 56.8658 132.393 54.1018C133.183 52.9173 133.973 51.7327 134.894 50.5481C136.737 47.9157 138.843 45.415 140.949 42.9142C140.027 42.2561 139.106 41.598 138.185 40.9399C136.079 43.4407 134.105 45.9415 132.13 48.5738C131.341 49.7584 130.419 50.943 129.629 52.1275C127.787 54.7599 125.813 57.5239 123.707 60.0247C113.967 71.2123 97.3829 77.53 77.1136 78.0565C75.7974 78.0565 74.6128 78.0565 73.2966 78.0565C67.7686 78.0565 62.2407 78.1881 56.7127 79.7675C53.6854 80.6888 50.9214 81.8734 48.2891 83.4528C49.342 84.1109 50.2633 84.9006 51.3163 85.5587C53.159 84.5058 55.2649 83.5844 57.5024 82.9264Z" fill="#F2D0A4"/>
<path d="M32.8894 52.127C35.2585 52.7851 37.6277 53.3116 39.8652 53.9697C51.316 56.8653 64.7412 59.2345 77.3766 55.0227C86.8531 51.8638 94.7502 45.4145 101.858 38.7019C106.333 34.6217 110.544 30.2783 114.756 26.0665C113.703 25.54 112.782 24.8819 111.729 24.3555C107.781 28.4357 103.7 32.3842 99.6201 36.2012C92.776 42.5189 85.2737 48.8366 76.3236 51.7322C64.6095 55.5491 51.7109 53.3116 40.6549 50.5476C38.2858 50.0211 36.0483 49.363 33.6791 48.705C24.0709 46.2042 14.0679 43.5718 3.93327 43.5718C3.27517 43.5718 2.61708 43.5718 1.95898 43.5718C2.61708 44.6248 3.27517 45.8093 4.06489 46.8623C13.8047 47.1255 23.5445 49.7579 32.8894 52.127Z" fill="#F2D0A4"/>
<path d="M39.601 70.2903C48.6827 67.3947 58.2909 67.5263 65.7932 67.9211C66.4513 67.9211 67.1093 68.0528 67.8991 68.0528C72.9006 68.316 78.0337 68.5792 83.1668 67.5263C89.6162 66.0785 95.1442 62.3932 100.277 58.8394C108.306 53.1798 116.598 46.8621 122.784 38.3069C124.1 36.4642 125.153 34.7532 126.206 32.7789C125.285 32.1208 124.364 31.5943 123.311 31.0679C122.389 32.9105 121.336 34.6216 120.02 36.3326C114.229 44.493 106.2 50.6791 98.303 56.0754C93.4331 59.4975 88.1684 62.9196 82.2455 64.2358C77.6389 65.2888 72.6373 65.0255 67.8991 64.7623C67.241 64.7623 66.5829 64.6307 65.7932 64.6307C58.0276 64.2358 47.893 64.1042 38.4164 67.1314C35.5208 68.0528 32.8885 69.2373 30.3877 70.5535C31.309 71.3432 32.362 72.0013 33.4149 72.791C35.3892 71.8697 37.4951 70.9484 39.601 70.2903Z" fill="#F2D0A4"/>
<path d="M70.5329 26.7243C64.3469 29.4883 56.5813 29.4883 46.8416 26.7243C37.2334 23.9603 28.1517 19.4852 20.1229 13.5624C19.07 14.2205 18.1487 14.8786 17.0957 15.5367C25.6509 21.986 35.5223 26.9875 45.9202 30.0147C56.4497 33.042 65.005 33.042 71.9808 29.8831C79.483 26.461 84.3529 20.0117 88.5647 13.0359C87.5118 12.5094 86.4588 12.1146 85.4059 11.7197C81.3257 18.0374 77.1139 23.697 70.5329 26.7243Z" fill="#F2D0A4"/>
<path d="M27.625 8.82481C35.5221 13.1682 44.3406 16.9852 53.6855 17.9065C57.8973 18.3014 61.451 18.0381 64.4783 16.8536C68.9533 15.2741 72.7703 11.852 75.5343 7.24539C74.4813 6.85053 73.4284 6.32406 72.3754 5.9292C70.0063 9.61453 66.979 12.3785 63.4253 13.5631C60.9246 14.4844 57.8973 14.7477 54.0804 14.3528C46.0516 13.5631 38.2861 10.4042 31.1787 6.7189C29.9941 7.50861 28.8096 8.16671 27.625 8.82481Z" fill="#F2D0A4"/>
<path d="M81.3245 36.0693C67.8994 45.0194 49.736 46.204 35.2579 39.0965C31.8358 37.3855 28.4137 35.2796 25.2549 33.1737C19.4636 29.4884 13.5408 25.5398 6.56499 24.092C5.64366 25.0133 4.72233 26.0663 3.93262 27.1192C4.59071 27.2508 5.11719 27.2509 5.77528 27.3825C12.093 28.6987 17.621 32.2524 23.4122 35.9377C26.7027 38.0436 30.2564 40.2811 33.8101 42.1238C49.3411 49.7577 68.8207 48.4415 83.1672 38.8333C90.6694 33.8318 96.7239 26.7244 100.541 18.564C99.4879 18.0375 98.5666 17.6427 97.5136 17.1162C93.9599 24.7501 88.4319 31.4627 81.3245 36.0693Z" fill="#F2D0A4"/>
<path d="M134.63 147.814C138.711 135.179 142.528 123.333 151.214 114.12C153.584 111.619 156.348 109.381 158.98 107.144C160.033 106.223 161.086 105.301 162.27 104.38C166.219 100.958 169.904 97.2725 173.458 93.4555C173.326 92.0077 173.063 90.5599 172.8 88.9805C168.983 93.5871 164.64 97.9306 160.033 101.879C158.98 102.8 157.927 103.722 156.874 104.511C154.11 106.749 151.214 109.118 148.714 111.751C139.5 121.49 135.42 134.257 131.34 146.761C130.813 148.472 130.287 150.183 129.629 151.894C130.55 152.816 131.472 153.605 132.393 154.395C133.183 152.158 133.841 149.92 134.63 147.814Z" fill="#F2D0A4"/>
<path d="M151.478 151.5C152.268 150.316 153.189 149.131 154.111 147.815C153.584 144.656 153.321 141.365 153.847 138.207C154.769 131.889 158.059 125.966 161.481 120.57C165.035 114.91 168.984 109.382 173.195 104.249C173.327 102.406 173.459 100.564 173.459 98.5894C168.062 105.039 163.061 111.751 158.586 118.727C154.9 124.518 151.347 130.704 150.425 137.68C149.899 142.418 150.425 147.025 151.478 151.5Z" fill="#F2D0A4"/>
<path d="M123.443 128.993C128.313 122.28 134.236 116.358 140.027 110.566C144.239 106.223 148.714 101.879 152.663 97.1412C158.98 89.6389 163.982 81.7418 167.536 73.4498C166.877 72.1336 166.219 70.949 165.43 69.6328C162.008 78.3197 156.743 87.0065 150.03 94.9036C146.082 99.5103 141.738 103.985 137.526 108.197C131.735 114.12 125.681 120.174 120.679 127.019C118.178 130.441 116.073 133.994 114.493 137.417C115.414 138.206 116.204 139.128 117.126 139.917C118.705 136.232 120.811 132.547 123.443 128.993Z" fill="#F2D0A4"/>
<path d="M102.515 95.1665C104.095 94.3768 105.806 93.5871 107.385 92.6658C116.467 88.1907 125.812 83.5841 133.577 76.8715C141.08 70.4222 147.266 61.9986 151.609 52.2588C150.82 51.4691 149.898 50.6794 148.977 49.8896C144.765 59.6294 138.842 67.9214 131.34 74.3708C123.838 80.8201 114.624 85.2951 105.806 89.7702C104.226 90.5599 102.515 91.3496 100.936 92.2709C93.1705 96.2195 85.2733 100.695 78.6924 106.617C79.6137 107.275 80.4034 108.065 81.3248 108.723C87.6425 103.064 95.1447 98.8519 102.515 95.1665Z" fill="#F2D0A4"/>
<path d="M98.1734 122.412C103.965 117.016 110.677 112.409 117.127 108.066C123.839 103.459 130.815 98.7207 136.869 93.0611C146.478 84.111 153.585 72.9234 160.429 62.1307C159.771 61.2094 158.981 60.288 158.192 59.3667C151.347 70.2911 144.108 81.7419 134.632 90.692C128.709 96.22 121.865 100.958 115.284 105.433C108.703 109.908 101.859 114.515 95.9359 120.175C95.8043 120.306 95.6726 120.438 95.541 120.569C96.3307 121.096 97.2521 121.754 98.1734 122.412C98.0418 122.412 98.0418 122.412 98.1734 122.412Z" fill="#F2D0A4"/>
</svg>
