<svg width="1205" height="1230" viewBox="0 0 1205 1230" fill="none" xmlns="http://www.w3.org/2000/svg">
<path opacity="0.7" d="M391.369 250.086C459.761 261.24 529.579 247.687 598.842 249.139C668.106 250.591 744.238 272.296 779.85 331.699C813.278 387.37 802.987 462.934 841.947 514.84C883.132 569.733 964.281 578.587 1011.78 628.123C1067.68 686.463 1059.51 778.311 1072.15 858.112C1090.38 972.93 1157.34 1073.3 1222.66 1169.47C1238.09 1192.27 1259.47 1217.85 1286.76 1214.19C1316.69 1210.17 1329.45 1174.69 1336.07 1145.29C1388.81 910.458 1441.55 675.632 1494.29 440.805C1517.98 335.185 1540.17 217.878 1486.33 123.933C1423.58 14.4188 1284.24 -19.3218 1160.16 -42.6403C998.483 -73.0225 836.742 -103.414 675.077 -133.863C586.008 -150.633 495.783 -167.435 405.331 -161.197C305.843 -154.3 132.429 -109.945 154.629 15.5553C174.945 130.132 276.921 231.383 391.369 250.086Z" fill="#FF5F33"/>
</svg>
