<svg width="618" height="510" viewBox="0 0 618 510" fill="none" xmlns="http://www.w3.org/2000/svg">
<path opacity="0.25" d="M469.318 271.964C551.095 263.939 583.038 245.829 595.497 229.655L600.087 218.695L594.154 200.959C527.739 142.912 325.84 142.538 325.84 142.538C21.2118 147.939 5.44336 199.96 5.44336 199.96C5.44336 199.96 5.59948 201.365 5.97418 203.925C18.2455 222.129 37.8546 239.397 69.1418 246.922C149.015 266.187 322.124 286.39 469.318 271.964Z" fill="white"/>
<path d="M598.025 208.859C582.444 185.721 554.436 176.229 529.112 167.923C483.462 152.966 435.532 144.879 387.727 140.882C324.903 135.637 262.141 139.508 199.504 145.129C170.403 147.752 141.301 150.874 112.387 155.308C89.0624 158.868 65.5814 163.021 42.9747 169.984C34.8251 172.482 26.6754 175.386 19.0878 179.32C13.842 182.068 8.44017 185.378 4.78688 190.155C-4.01849 201.677 6.97261 215.759 15.2159 224.096C28.8299 237.898 48.2517 244.923 66.5181 250.2C87.1889 256.195 108.484 259.911 129.748 263.158C137.804 264.376 145.86 265.531 153.916 266.78C194.977 273.213 236.818 275.211 278.315 276.522C326.089 278.021 373.925 277.928 421.699 276.117C458.638 274.711 496.295 273.181 532.703 266.187C551.095 262.659 569.58 256.039 585.629 246.422C592.498 242.3 600.305 236.773 602.865 228.749C605.082 221.629 601.991 214.76 598.025 208.859ZM590.781 228.436C583.693 236.149 573.576 241.02 564.115 245.173C554.998 249.17 545.536 252.885 535.888 255.352C522.867 258.693 509.378 260.411 496.045 261.909C477.248 264.033 458.326 265.375 439.435 266.374C393.441 268.841 347.353 269.403 301.328 268.623C258.207 267.904 214.96 266.218 172.089 261.441C163.908 260.535 155.758 259.474 147.64 258.194C129.561 255.352 111.95 252.729 94.2145 248.233C72.2323 242.644 51.0307 236.43 33.6073 224.814C23.5217 218.07 19.0253 211.2 19.6498 203.176C20.368 194.214 27.0501 189.187 36.1677 185.378C55.0274 177.54 73.2939 172.107 93.2777 168.36C119.538 163.427 146.048 159.992 172.589 157.119C201.721 153.965 230.947 151.561 260.174 149.563C292.054 147.377 323.903 146.222 355.846 147.315C407.211 149.063 458.732 155.527 508.473 168.641C525.303 173.075 542.008 178.29 558.151 184.815C567.987 188.812 582.35 197.618 588.845 207.984C592.592 214.042 595.402 223.409 590.781 228.436Z" fill="#D8D8D8"/>
<path opacity="0.6" d="M293.491 492.222C340.88 492.222 379.297 479.836 379.297 464.557C379.297 449.278 340.88 436.892 293.491 436.892C246.102 436.892 207.686 449.278 207.686 464.557C207.686 479.836 246.102 492.222 293.491 492.222Z" fill="#5D7F5E"/>
<path d="M600.336 202.831C593.279 194.088 581.57 188.968 571.547 184.565C542.32 171.7 510.752 163.738 479.808 156.244C447.741 148.469 415.642 141.849 382.668 139.476C322.561 135.136 261.766 139.695 201.908 145.315C163.502 148.937 125.033 153.153 87.1263 160.459C66.518 164.425 45.6911 169.046 26.1444 176.821C17.9011 180.1 8.97081 184.034 2.60097 190.404C-2.27009 195.275 1.00851 212.011 2.0077 217.382C5.72344 237.428 10.6257 257.287 16.5584 276.771C33.3573 332.008 59.024 386.901 100.178 428.274C127.094 455.346 160.723 476.641 196.069 490.786C229.73 504.275 265.981 510.832 302.265 509.739C368.992 507.709 434.97 481.387 488.239 441.732C512.782 423.465 534.733 401.764 552.468 376.815C571.141 350.524 587.315 324.764 595.933 293.726C600.523 277.177 605.238 257.006 607.205 239.926C609.797 218.381 608.454 212.917 600.336 202.831ZM511.22 403.794C490.081 425.401 465.57 443.48 439.279 458.312C410.489 474.549 379.608 487.32 347.415 494.876C314.068 502.713 279.221 504.868 245.279 499.529C209.777 493.97 176.242 480.263 146.641 459.904C120.131 441.669 98.0549 419 80.1319 392.334C64.0512 368.416 51.4364 342.25 41.1947 315.365C27.8305 280.362 17.9011 243.548 12.5929 206.391C12.4368 205.267 12.2494 204.174 12.1245 203.05C12.1245 202.987 12.1245 202.987 12.1245 202.925C12.2182 202.269 12.4055 201.676 12.6866 201.051C14.8098 196.43 19.4311 193.558 23.4279 191.153C35.1059 184.159 48.5013 179.944 61.5532 176.29C88.6563 168.703 116.571 164.081 144.392 160.272C185.047 154.683 226.014 150.936 266.981 148.219C296.363 146.252 325.839 144.972 355.284 145.315C388.913 145.69 421.168 148.563 453.923 155.557C476.748 160.428 499.449 165.83 521.899 172.169C536.637 176.322 551.313 180.787 565.551 186.438C568.049 187.438 571.547 188.905 573.045 189.561C574.232 190.092 575.387 190.654 576.542 191.216C577.198 191.528 577.854 191.871 578.541 192.215C578.822 192.34 579.072 192.496 579.353 192.621C579.415 192.652 579.571 192.746 579.915 192.933C580.852 193.464 581.819 194.026 582.756 194.588C582.881 194.682 582.944 194.713 583.037 194.744C583.131 194.807 583.193 194.838 583.318 194.931C583.787 195.244 584.255 195.587 584.723 195.931C584.879 196.056 585.004 196.118 585.067 196.18C585.129 196.212 585.161 196.243 585.223 196.305C585.535 196.586 585.879 196.836 586.191 197.117C587.19 197.96 586.878 197.617 587.721 198.678C595.371 208.233 596.339 222.378 589.969 232.901C589.875 233.057 589.875 233.213 589.907 233.4C586.035 266.498 577.542 299.066 563.241 329.26C550.189 356.863 532.516 382.061 511.22 403.794Z" fill="#D8D8D8"/>
<path d="M292.054 43.6169C298.393 29.2535 294.271 11.6115 279.876 3.89903C266.013 -3.50122 246.06 -0.534878 238.16 14.2344C234.476 21.1038 236.818 33.1254 226.108 33.5625C220.862 33.7811 215.616 31.5954 210.401 31.0021C205.811 30.5025 201.097 31.0958 196.912 33.0317C186.14 38.0276 185.734 50.5175 187.264 60.7905C187.951 65.4117 171.214 63.788 177.366 78.0577C177.428 78.5261 184.985 85.5517 185.078 86.02C184.079 94.4819 190.761 92.6084 193.446 100.758C198.786 117.057 212.993 130.203 230.573 131.046C239.909 131.483 249.151 128.048 257.114 123.427C264.764 118.993 272.664 113.342 278.534 106.691C284.591 99.8526 301.515 94.1697 300.048 84.9272C298.736 76.5902 295.895 65.5366 272.57 65.4117C271.102 65.4117 269.853 64.2252 268.604 63.4446C270.977 61.3213 273.663 60.3533 276.692 59.0419C283.561 56.0131 289.025 50.5175 292.054 43.6169ZM268.261 63.4758C266.949 63.7568 267.387 63.3197 267.949 63.0386C268.074 63.1635 268.386 63.4446 268.261 63.4758ZM207.185 62.1019C207.185 62.1019 207.185 62.1331 207.185 62.1019C207.06 62.0394 206.936 61.9458 206.811 61.8833C206.842 61.7896 206.873 61.696 206.904 61.6023C207.185 61.7896 207.341 62.0082 207.185 62.1019ZM268.511 63.4133C268.417 63.3509 268.323 63.3197 268.261 63.2572C268.105 63.1323 268.011 63.0699 267.949 63.0386C268.479 62.7576 269.135 62.6327 268.511 63.4133Z" fill="#4D6D0F"/>
<path d="M70.2027 208.265C70.2027 208.265 21.9918 219.412 16.7148 188.468C12.4683 163.707 48.2518 177.821 29.5794 152.217C8.37782 123.084 41.1638 90.298 60.0859 98.4789C79.0393 106.66 80.101 107.971 97.5556 98.4789C115.01 88.9866 150.981 76.965 158.163 105.036C165.344 133.138 185.172 140.788 217.958 141.069C250.744 141.35 284.03 160.616 273.694 187.095C263.359 213.573 282.999 177.071 306.199 178.071C329.399 179.07 355.534 219.974 339.734 251.98C323.966 284.016 292.367 284.765 270.603 307.747C248.839 330.728 147.64 323.921 139.178 306.311C130.716 288.7 63.8954 249.887 70.2027 208.265Z" fill="#4D6D0F"/>
<path d="M135.307 56.325C134.495 48.4876 131.779 39.5261 124.972 34.8424C118.852 30.6583 110.015 31.5326 103.989 35.4045C97.0255 39.8696 92.6541 47.4572 92.2481 55.7317C91.9047 62.8198 94.9335 69.252 99.7421 74.1543C101.116 78.2448 103.583 81.8668 107.829 83.8028C115.511 87.3624 124.253 83.2719 129.218 77.0582C133.871 71.2192 136.088 63.8189 135.307 56.325Z" fill="#4D6D0F"/>
<path d="M330.835 53.8905C330.804 53.7656 330.741 53.6095 330.71 53.4846C330.46 52.7977 330.179 52.0795 329.836 51.455C329.773 51.3301 329.711 51.2364 329.649 51.1427C329.243 50.5183 328.774 49.925 328.306 49.3629C327.994 48.9882 327.619 48.676 327.244 48.3637C326.901 47.8954 326.526 47.427 326.089 47.0835C325.433 46.5215 324.715 45.897 323.903 45.4599C323.123 45.0539 322.28 44.6168 321.436 44.4294C321.062 44.3358 320.625 44.3045 320.312 44.2733C320 44.2421 319.501 44.1172 319.095 44.1172C318.345 44.1172 317.565 44.2109 316.846 44.3982C316.784 44.4294 316.69 44.4294 316.628 44.4607C316.035 44.7105 315.473 44.9603 314.879 45.1788C314.848 45.2101 314.786 45.2101 314.754 45.2413C314.13 45.616 313.537 46.0843 313.006 46.6152C312.475 47.146 311.975 47.7705 311.632 48.4574C310.82 50.0499 310.695 50.7681 310.539 52.5479C310.508 52.7352 310.508 52.9226 310.539 53.1099C310.601 53.953 310.726 54.796 310.883 55.6079C310.945 55.9201 311.07 56.2324 311.132 56.5446C311.195 57.1379 311.257 57.981 311.445 58.6367C311.663 59.3548 312.007 60.1979 312.413 60.8849C313.474 62.6334 314.723 63.7263 316.316 64.9128C316.534 65.069 316.784 65.2251 317.034 65.3812C317.846 65.8184 318.72 66.2243 319.625 66.4429C320.031 66.5365 320.531 66.5678 320.937 66.6302C321.312 66.6927 321.811 66.7863 322.217 66.7863C322.592 66.7551 323.06 66.6927 323.341 66.6302C323.591 66.599 324.122 66.5678 324.465 66.4741C325.183 66.2867 325.902 66.0057 326.526 65.631C327.119 65.2563 327.713 64.8192 328.212 64.3508C328.243 64.3196 328.243 64.2884 328.275 64.2884C328.806 63.7888 329.274 63.2579 329.649 62.6334C329.711 62.5085 329.805 62.3836 329.867 62.2587C330.179 61.603 330.492 60.8849 330.741 60.1979C330.835 59.9169 330.898 59.6359 330.96 59.3548C331.085 58.5742 331.303 57.5126 331.241 56.6383C331.179 55.7016 331.085 54.7648 330.835 53.8905Z" fill="#4D6D0F"/>
<path d="M493.984 309.276C493.984 309.276 497.887 331.352 515.561 329.791C533.234 328.23 532.422 316.833 540.259 312.586C548.097 308.34 555.965 313.211 561.648 307.465C567.331 301.72 574.919 281.174 559.119 272.494C543.351 263.844 544.319 248.295 562.991 247.17C581.663 246.046 584.692 216.695 559.119 216.352C538.011 216.071 561.211 201.239 573.014 205.017C612.888 217.694 629.344 175.978 607.517 151.03C587.721 128.392 574.981 151.342 559.556 139.976C544.131 128.61 570.828 125.019 562.991 108.158C554.529 89.954 515.405 85.8636 505.381 141.1C495.358 196.305 407.96 199.615 420.887 253.353C433.814 307.059 493.984 309.276 493.984 309.276Z" fill="#4D6D0F"/>
<path d="M312.788 437.61C312.788 437.61 320.75 475.236 347.853 465.244C374.956 455.252 373.488 433.426 392.192 450.693C410.896 467.96 428.6 449.507 429.318 431.303C430.036 413.13 449.864 409.508 472.689 415.722C495.515 421.966 504.414 392.896 500.354 383.591C496.295 374.286 500.511 363.17 511.627 363.607C522.743 364.045 535.982 354.396 528.457 331.665C520.932 308.964 430.755 254.977 406.243 254.04C381.732 253.103 343.481 237.897 318.564 255.913C293.647 273.93 255.99 325.576 255.99 325.576C255.99 325.576 255.178 449.756 312.788 437.61Z" fill="#4D6D0F"/>
<path d="M255.99 193.746C255.99 193.746 211.464 175.199 226.046 149.751C240.628 124.303 261.517 139.447 259.924 119.869C258.332 100.322 249.901 123.584 259.924 91.1419C269.542 60.0733 297.113 55.577 323.904 78.0275C352.1 101.665 351.132 67.1301 371.959 60.9788C392.786 54.8276 404.526 70.315 402.496 84.897C400.467 99.4789 413.425 45.3665 441.933 49.1447C470.441 52.9229 444.025 89.4245 472.69 89.8617C501.354 90.2988 526.365 64.0388 529.987 102.008C531.985 123.085 513.063 121.898 518.246 147.784C523.461 173.669 546.599 176.541 532.922 201.927C519.246 227.313 480.87 235.181 498.856 257.601C516.841 280.02 469.068 338.691 451.426 315.491C433.784 292.323 398.687 284.235 392.817 306.28C386.947 328.325 323.342 310.058 321.874 274.181C320.438 238.304 299.642 166.362 255.99 193.746Z" fill="#60891F"/>
<path d="M66.3934 206.36C66.3934 206.36 59.6488 198.866 42.6314 206.953C22.5851 216.508 29.4545 235.555 37.9789 241.831C46.5345 248.076 56.4951 247.608 51.9676 269.902C47.44 292.228 53.9659 298.41 70.1716 294.351C86.346 290.292 73.3253 305.342 70.1716 315.522C67.0179 325.67 72.1699 343.374 105.705 329.76C139.241 316.146 114.636 358.362 109.015 368.76C103.395 379.157 101.802 406.76 125.752 410.694C149.701 414.66 192.198 400.484 193.978 418.626C195.789 436.736 188.232 471.021 213.524 474.768C238.816 478.515 243.5 478.733 249.87 467.68C256.24 456.626 260.174 461.997 268.386 467.68C276.598 473.362 282.406 466.118 283.592 455.845C284.779 445.572 302.889 456.314 328.868 442.419C354.879 428.524 384.636 362.39 361.842 365.481C339.079 368.572 329.93 353.834 342.076 338.784C354.223 323.734 344.824 289.199 322.061 288.793C299.299 288.387 286.652 299.909 265.826 315.927C244.999 331.946 273.85 304.53 274.85 273.774C275.849 242.987 240.19 205.454 210.277 228.217C176.242 254.103 140.177 249.231 138.304 237.366C136.493 225.532 75.0738 189.405 66.3934 206.36Z" fill="#60891F"/>
<path d="M149.326 302.22L149.482 291.478L199.598 269.746C199.598 269.746 219.488 291.041 246.123 277.084C272.757 263.126 278.315 235.461 278.315 235.461C278.315 235.461 280.408 234.993 284.841 234.275C297.987 232.058 316.41 232.276 320.438 238.303C339.547 266.811 305.762 295.662 295.114 314.709C284.467 333.788 256.646 364.076 231.635 361.141C206.624 358.237 168.217 360.079 149.326 302.22Z" fill="#D6D64C"/>
<path d="M245.03 302.377C276.723 289.137 283.717 254.009 284.81 234.307C280.813 235.025 278.284 235.493 278.284 235.493C278.284 235.493 272.726 263.189 246.091 277.116C219.457 291.073 199.566 269.778 199.566 269.778L188.794 274.462C199.192 292.322 217.958 313.68 245.03 302.377Z" fill="#9BA231"/>
<path d="M124.533 105.035L134.806 108.158L141.769 162.333C141.769 162.333 115.79 175.541 121.816 205.017C127.843 234.462 152.885 247.482 152.885 247.482C152.885 247.482 152.729 249.637 152.229 254.071C150.699 267.341 145.422 284.952 138.49 287.169C105.798 297.629 87.4691 257.162 72.1065 241.643C56.744 226.125 35.355 190.997 45.0971 167.797C54.8393 144.566 63.7071 107.127 124.533 105.035Z" fill="#D6D64C"/>
<path d="M97.8676 196.929C101.802 231.058 133.589 247.513 152.23 254.039C152.667 250.011 152.886 247.451 152.886 247.451C152.886 247.451 127.812 234.461 121.817 204.985C115.822 175.509 141.77 162.301 141.77 162.301L140.271 150.654C120.224 155.65 94.4953 167.765 97.8676 196.929Z" fill="#9BA231"/>
<path d="M140.238 332.757L148.418 325.794L197.785 349.212C197.785 349.212 194.85 378.251 222.921 389.118C250.992 399.984 275.503 385.933 275.503 385.933C275.503 385.933 277.22 387.213 280.686 390.054C291.022 398.516 303.012 412.505 301.139 419.531C292.271 452.722 248.275 446.259 226.886 450.818C205.497 455.345 164.343 454.377 150.073 433.613C135.804 412.817 109.107 385.09 140.238 332.757Z" fill="#D6D64C"/>
<path d="M203.187 404.917C234.068 420.061 265.137 402.201 280.687 390.023C277.533 387.462 275.503 385.901 275.503 385.901C275.503 385.901 250.992 399.952 222.921 389.086C194.85 378.22 197.785 349.181 197.785 349.181L187.169 344.154C180.549 363.763 176.833 391.99 203.187 404.917Z" fill="#9BA231"/>
<path d="M283.965 98.6033L292.302 94.7314L327.742 125.207C327.742 125.207 318.78 148.5 339.451 163.801C360.153 179.101 383.54 173.043 383.54 173.043C383.54 173.043 384.664 174.479 386.913 177.602C393.532 186.907 400.246 201.176 397.123 206.516C382.291 231.902 347.476 216.633 328.803 215.54C310.131 214.447 276.44 204.361 269.352 184.003C262.232 163.644 246.464 134.762 283.965 98.6033Z" fill="#D6D64C"/>
<path d="M319.593 172.356C341.638 191.84 371.301 184.096 386.883 177.57C384.853 174.76 383.51 173.012 383.51 173.012C383.51 173.012 360.123 179.069 339.421 163.769C318.719 148.469 327.712 125.175 327.712 125.175L320.093 118.618C310.226 133.294 300.765 155.713 319.593 172.356Z" fill="#9BA231"/>
<path d="M374.486 313.804L371.27 303.562L412.049 267.248C412.049 267.248 437.622 281.268 458.543 259.66C479.463 238.084 476.091 210.044 476.091 210.044C476.091 210.044 477.933 208.951 481.899 206.859C493.702 200.645 511.25 195.056 516.964 199.521C544.036 220.629 520.992 258.567 516.808 280.019C512.655 301.47 495.731 338.94 471.064 343.967C446.459 349.056 410.55 362.858 374.486 313.804Z" fill="#D6D64C"/>
<path d="M465.443 283.984C491.422 261.471 487.05 225.937 481.929 206.859C478.339 208.764 476.122 210.044 476.122 210.044C476.122 210.044 479.525 238.084 458.573 259.66C437.622 281.236 412.08 267.247 412.08 267.247L403.306 275.054C418.762 288.793 443.242 303.218 465.443 283.984Z" fill="#9BA231"/>
<path d="M494.358 215.822C494.358 215.822 481.774 196.275 505.005 186.939C528.268 177.603 559.492 203.644 559.555 218.632C559.617 233.62 546.066 241.301 528.861 238.96C511.687 236.649 495.263 217.446 494.358 215.822Z" fill="#422532"/>
<path d="M552.436 219.789C552.249 220.132 552.686 219.445 552.436 219.789C552.28 220.039 552.093 220.289 551.937 220.538C551.344 221.35 550.688 222.131 549.97 222.849C549.72 223.099 550.032 222.787 549.845 222.974C549.72 223.099 549.595 223.224 549.47 223.317C549.22 223.536 549.002 223.723 548.752 223.942C548.19 224.41 547.565 224.816 546.941 225.191C546.847 225.253 546.754 225.284 546.691 225.347C546.785 225.284 546.785 225.316 546.629 225.378C546.504 225.441 546.348 225.534 546.223 225.597C545.848 225.784 545.442 225.971 545.036 226.128C544.224 226.44 543.6 226.596 542.788 226.752C542.007 226.877 541.414 227.533 541.508 228.376C541.601 229.125 542.351 229.812 543.131 229.656C548.127 228.782 552.717 225.378 555.184 220.975C555.559 220.289 555.122 219.352 554.435 219.04C553.592 218.727 552.842 219.102 552.436 219.789Z" fill="#7C596B"/>
<path d="M544.286 221.255C546.253 223.784 548.189 226.345 549.969 228.999C550.187 229.342 550.406 229.686 550.625 230.029C550.781 230.31 550.5 229.748 550.562 229.935C550.593 229.998 550.625 230.029 550.656 230.092C550.687 230.185 550.75 230.279 550.75 230.373C550.937 231.153 551.999 231.465 552.654 231.184C553.466 230.872 553.653 230.06 553.466 229.28C553.31 228.686 552.873 228.124 552.561 227.594C552.061 226.813 551.499 226.032 550.968 225.252C549.813 223.659 548.657 222.098 547.471 220.537C547.19 220.193 546.94 219.819 546.659 219.475C546.191 218.851 545.254 218.695 544.598 219.163C543.974 219.694 543.818 220.631 544.286 221.255Z" fill="#7C596B"/>
<path d="M383.105 126.145C383.105 126.145 358.25 130.891 358.313 103.632C358.375 76.3726 397.344 55.4832 412.488 61.5096C427.632 67.5672 429.88 84.3661 420.512 100.728C411.145 117.121 385.103 125.895 383.105 126.145Z" fill="#422532"/>
<path d="M410.74 69.1603C411.021 69.5037 410.49 68.7856 410.74 69.1603C410.927 69.4101 411.114 69.6911 411.302 69.9721C411.895 70.9088 412.395 71.8768 412.832 72.9072C412.988 73.2507 412.8 72.8136 412.925 73.0946C412.988 73.2819 413.05 73.4381 413.113 73.6254C413.238 73.9376 413.331 74.2811 413.425 74.6246C413.644 75.374 413.831 76.1546 413.956 76.9664C413.987 77.0913 413.987 77.185 414.018 77.3099C413.987 77.185 414.018 77.2162 414.018 77.4036C414.049 77.5597 414.049 77.7471 414.049 77.9032C414.081 78.3716 414.112 78.8399 414.081 79.3083C414.049 80.245 413.987 80.9632 413.8 81.8375C413.612 82.6806 414.049 83.5549 414.893 83.8047C415.673 84.0232 416.672 83.5549 416.86 82.7118C418.015 77.3099 416.454 71.3148 412.988 67.0058C412.457 66.3188 411.302 66.4125 410.74 66.9745C410.115 67.5678 410.209 68.5045 410.74 69.1603Z" fill="#7C596B"/>
<path d="M408.928 77.9973C412.269 77.0605 415.642 76.1238 419.045 75.4056C419.482 75.312 419.919 75.2495 420.357 75.1558C420.7 75.0934 420.013 75.1871 420.232 75.1558C420.294 75.1558 420.357 75.1558 420.419 75.1246C420.513 75.1246 420.638 75.1246 420.731 75.1246C421.574 75.2495 422.324 74.3128 422.324 73.5321C422.324 72.5642 421.606 72.0646 420.731 71.9397C420.076 71.846 419.326 72.0646 418.671 72.1895C417.671 72.3768 416.672 72.6266 415.673 72.8764C413.612 73.376 411.551 73.9381 409.49 74.5001C409.022 74.625 408.554 74.7499 408.085 74.8748C407.273 75.0934 406.711 75.9677 406.961 76.8107C407.18 77.6538 408.085 78.2159 408.928 77.9973Z" fill="#7C596B"/>
<path d="M133.464 215.04C133.464 215.04 93.8711 235.274 88.6878 264.625C83.5045 293.976 86.2522 313.086 104.238 342.687C122.223 372.288 151.168 377.752 179.489 381.406C207.81 385.059 239.503 357.019 239.503 357.019L143.581 210.294C143.581 210.294 141.988 209.108 133.464 215.04Z" fill="#D61D10"/>
<path d="M183.831 319.487C183.831 319.487 169.749 322.235 171.654 328.386C173.558 334.537 182.333 332.351 183.831 319.487Z" fill="#F36C2B"/>
<path d="M172.776 304.373C172.776 304.373 157.476 304.373 158.194 311.211C158.944 318.018 168.561 317.55 172.776 304.373Z" fill="#F36C2B"/>
<path d="M160.723 291.227C160.723 291.227 146.765 289.135 146.515 295.473C146.234 301.781 155.102 302.655 160.723 291.227Z" fill="#F36C2B"/>
<path d="M152.887 276.147C152.887 276.147 140.615 269.964 138.461 275.741C136.275 281.486 144.206 284.983 152.887 276.147Z" fill="#F36C2B"/>
<path d="M153.793 262.657C153.793 262.657 144.55 252.509 140.46 257.13C136.369 261.72 142.521 267.809 153.793 262.657Z" fill="#F36C2B"/>
<path d="M193.197 329.791C193.197 329.791 182.737 336.722 186.328 341.063C189.919 345.403 196.288 340.719 193.197 329.791Z" fill="#F36C2B"/>
<path d="M195.32 358.549C206.467 356.551 223.765 349.588 232.29 345.966L224.171 333.538C212.399 338.596 191.51 346.809 182.549 345.747C169.747 344.217 161.815 341.781 146.547 325.576C131.246 309.37 130.778 291.822 129.841 275.679C129.061 261.877 152.136 239.833 158.912 233.681L148.139 217.195C140.551 222.316 127 232.089 118.569 241.55C106.392 255.258 106.079 277.49 105.767 288.169C105.455 298.847 116.727 318.019 131.652 336.223C146.578 354.427 180.082 361.297 195.32 358.549Z" fill="#E2481E"/>
<path d="M155.32 228.279L138.365 237.428C140.863 242.986 144.485 249.169 149.294 252.853C159.66 260.784 157.225 292.446 171.838 299.784C186.451 307.09 187.669 322.328 195.6 327.824C198.379 329.76 203.594 337.722 209.183 347.245C213.991 344.248 220.58 340.064 226.075 336.535L155.32 228.279Z" fill="#E2481E"/>
<path d="M380.483 220.441C380.483 220.441 411.957 251.853 441.464 247.701C470.972 243.548 488.301 235.055 510.908 208.795C533.484 182.566 529.768 153.339 524.491 125.268C519.214 97.1974 482.775 75.7148 482.775 75.7148L372.864 212.292C372.832 212.292 372.177 214.165 380.483 220.441Z" fill="#D61D10"/>
<path d="M465.038 140.255C465.038 140.255 472.001 152.776 477.247 149.092C482.493 145.345 477.715 137.695 465.038 140.255Z" fill="#F36C2B"/>
<path d="M454.048 155.43C454.048 155.43 458.763 169.981 465.039 167.171C471.346 164.392 467.88 155.368 454.048 155.43Z" fill="#F36C2B"/>
<path d="M445.274 170.95C445.274 170.95 447.616 184.876 453.705 183.159C459.825 181.473 457.92 172.792 445.274 170.95Z" fill="#F36C2B"/>
<path d="M433.346 183.065C433.346 183.065 431.254 196.648 437.405 196.929C443.588 197.21 444.462 188.592 433.346 183.065Z" fill="#F36C2B"/>
<path d="M420.263 186.375C420.263 186.375 413.487 198.302 419.139 200.769C424.759 203.236 428.662 195.492 420.263 186.375Z" fill="#F36C2B"/>
<path d="M471.94 128.172C471.94 128.172 481.776 135.978 484.805 131.232C487.803 126.423 481.37 121.833 471.94 128.172Z" fill="#F36C2B"/>
<path d="M498.636 117.244C493.297 107.252 481.307 92.9514 475.249 85.9883L465.944 97.5726C474.375 107.19 488.676 124.52 490.424 133.387C492.922 146.033 493.047 154.308 482.368 173.886C471.658 193.433 455.14 199.334 440.059 205.173C427.194 210.169 399.092 195.056 391.13 190.497L378.796 205.829C386.04 211.48 399.498 221.347 411.082 226.437C427.881 233.775 449.145 227.218 459.356 224.189C469.597 221.191 484.367 204.517 497.044 184.721C509.784 164.893 505.943 130.889 498.636 117.244Z" fill="#E2481E"/>
<path d="M387.07 195.556L400.997 208.857C405.524 204.767 410.27 199.396 412.3 193.682C416.64 181.38 447.521 173.917 449.957 157.743C452.392 141.568 466.506 135.698 469.285 126.487C470.253 123.239 476.248 115.808 483.555 107.596C479.214 103.942 473.188 98.9776 468.13 94.856L387.07 195.556Z" fill="#E2481E"/>
<path d="M271.54 219.973C271.54 219.973 301.485 186.407 295.646 156.868C289.807 127.33 280.221 110.281 252.462 88.9545C224.703 67.628 195.414 73.0611 167.343 79.9618C139.272 86.8937 119.663 124.894 119.663 124.894L263.734 228.154C263.734 228.154 265.67 228.685 271.54 219.973Z" fill="#D61D10"/>
<path d="M185.859 139.944C185.859 139.944 198.13 132.201 194.071 127.111C190.012 122.021 182.549 127.267 185.859 139.944Z" fill="#F36C2B"/>
<path d="M201.814 150.156C201.814 150.156 216.24 144.566 213.055 138.384C209.87 132.233 200.971 136.198 201.814 150.156Z" fill="#F36C2B"/>
<path d="M217.958 158.149C217.958 158.149 231.884 154.996 229.823 148.938C227.763 142.88 219.113 145.285 217.958 158.149Z" fill="#F36C2B"/>
<path d="M230.886 169.515C230.886 169.515 244.718 170.857 244.625 164.612C244.562 158.368 235.819 157.962 230.886 169.515Z" fill="#F36C2B"/>
<path d="M234.944 182.536C234.944 182.536 247.372 188.718 249.526 182.879C251.712 177.04 243.687 173.543 234.944 182.536Z" fill="#F36C2B"/>
<path d="M173.244 133.669C173.244 133.669 180.582 123.302 175.586 120.523C170.621 117.744 166.343 124.489 173.244 133.669Z" fill="#F36C2B"/>
<path d="M160.755 107.315C150.981 113.279 137.211 126.175 130.529 132.67L142.738 141.413C151.981 132.357 168.686 116.932 177.491 114.684C190.106 111.437 198.474 110.844 218.833 120.523C239.191 130.203 246.061 146.565 252.805 161.459C258.582 174.167 244.905 203.394 240.753 211.668L256.927 223.253C262.204 215.634 271.415 201.489 275.88 189.499C282.344 172.106 274.506 151.03 270.884 140.882C267.262 130.703 249.62 116.745 228.887 105.036C208.216 93.3578 174.088 99.1656 160.755 107.315Z" fill="#E2481E"/>
<path d="M246.092 215.508L258.738 200.676C254.335 196.336 248.683 191.84 242.782 190.122C230.105 186.438 220.831 155.682 204.375 154.152C187.92 152.622 181.207 138.695 171.714 136.416C168.373 135.604 160.567 130.015 151.824 123.052C148.39 127.642 143.706 134.012 139.834 139.32L246.092 215.508Z" fill="#E2481E"/>
<path d="M277.223 389.024C277.223 389.024 291.836 436.235 322.967 447.476C354.098 458.717 375.549 459.373 411.364 445.322C447.179 431.271 458.67 400.639 468.068 370.32C477.467 340.001 452.799 300.002 452.799 300.002L273.944 377.096C273.944 377.065 272.352 378.563 277.223 389.024Z" fill="#D61D10"/>
<path d="M401.122 353.739C401.122 353.739 401.466 369.664 408.554 368.758C415.642 367.853 414.923 357.83 401.122 353.739Z" fill="#F36C2B"/>
<path d="M382.483 362.981C382.483 362.981 379.579 379.749 387.198 380.249C394.785 380.717 396.097 370.101 382.483 362.981Z" fill="#F36C2B"/>
<path d="M365.776 373.661C365.776 373.661 360.843 388.555 367.712 390.022C374.613 391.552 377.236 382.029 365.776 373.661Z" fill="#F36C2B"/>
<path d="M347.792 379.375C347.792 379.375 338.705 391.615 344.607 395.081C350.508 398.546 355.817 390.584 347.792 379.375Z" fill="#F36C2B"/>
<path d="M333.209 375.814C333.209 375.814 320.344 384.027 324.622 389.366C328.9 394.705 336.706 389.147 333.209 375.814Z" fill="#F36C2B"/>
<path d="M414.175 345.464C414.175 345.464 419.795 358.235 425.228 355.144C430.661 352.022 426.727 344.153 414.175 345.464Z" fill="#F36C2B"/>
<path d="M446.086 348.619C446.024 336.036 441.683 315.771 439.342 305.779L424.166 312.305C427.445 326.137 432.503 350.586 429.631 360.172C425.54 373.88 421.356 382.092 400.685 395.768C380.015 409.414 360.749 406.635 342.888 404.543C327.651 402.763 307.917 373.318 302.452 364.731L282.375 373.38C286.559 382.685 294.646 399.359 303.389 410.382C316.066 426.337 340.359 430.896 351.975 433.238C363.59 435.611 386.728 426.899 409.491 414.035C432.285 401.202 446.18 365.824 446.086 348.619Z" fill="#E2481E"/>
<path d="M295.863 367.635L302.639 387.931C309.196 386.245 316.659 383.466 321.592 378.876C332.24 369.04 366.462 377.721 377.235 363.108C388.007 348.494 404.931 350.056 412.425 342.437C415.079 339.751 424.79 335.567 436.25 331.29C433.877 325.451 430.535 317.457 427.725 310.775L295.863 367.635Z" fill="#E2481E"/>
<path d="M364.277 284.859C364.277 284.859 361.873 310.057 335.738 302.376C309.603 294.695 300.454 251.417 310.477 238.553C320.531 225.688 337.268 228.28 350.382 241.831C363.496 255.383 364.621 282.829 364.277 284.859Z" fill="#422532"/>
<path d="M317.348 242.329C317.754 242.173 316.911 242.485 317.348 242.329C317.66 242.235 317.973 242.11 318.285 242.017C319.347 241.705 320.408 241.517 321.501 241.361C321.876 241.299 321.407 241.361 321.72 241.33C321.907 241.299 322.094 241.299 322.282 241.299C322.625 241.267 322.969 241.267 323.312 241.267C324.124 241.267 324.905 241.299 325.685 241.424C325.81 241.424 325.904 241.455 326.029 241.455C325.904 241.424 325.935 241.424 326.122 241.486C326.278 241.517 326.466 241.548 326.622 241.58C327.09 241.673 327.527 241.798 327.965 241.923C328.87 242.204 329.526 242.485 330.306 242.891C331.056 243.297 332.024 243.141 332.492 242.391C332.929 241.705 332.742 240.612 331.993 240.206C327.153 237.583 320.939 237.396 315.818 239.519C315.038 239.831 314.788 240.955 315.162 241.673C315.631 242.485 316.568 242.673 317.348 242.329Z" fill="#7C596B"/>
<path d="M325.311 246.576C325.342 243.11 325.373 239.613 325.654 236.147C325.686 235.71 325.748 235.273 325.779 234.836C325.81 234.492 325.717 235.148 325.748 234.961C325.779 234.898 325.779 234.836 325.779 234.773C325.81 234.68 325.842 234.555 325.873 234.461C326.216 233.68 325.561 232.712 324.811 232.494C323.906 232.213 323.188 232.775 322.844 233.556C322.563 234.18 322.563 234.929 322.501 235.616C322.407 236.647 322.345 237.677 322.313 238.676C322.22 240.8 322.157 242.954 322.126 245.077C322.126 245.546 322.126 246.045 322.095 246.514C322.095 247.388 322.782 248.137 323.656 248.137C324.53 248.137 325.311 247.451 325.311 246.576Z" fill="#7C596B"/>
<path d="M511.626 363.607C511.626 363.607 488.114 372.975 483.025 346.215C477.904 319.456 512.22 291.541 528.269 294.601C544.287 297.661 549.658 313.742 543.569 331.602C537.48 349.463 513.562 363.014 511.626 363.607Z" fill="#422532"/>
<path d="M528.02 302.439C528.332 302.72 527.676 302.127 528.02 302.439C528.238 302.657 528.488 302.907 528.707 303.126C529.456 303.938 530.143 304.812 530.767 305.718C530.986 306.03 530.736 305.624 530.892 305.905C530.986 306.061 531.08 306.217 531.205 306.404C531.392 306.717 531.548 306.998 531.704 307.31C532.079 308.028 532.391 308.746 532.672 309.496C532.703 309.589 532.735 309.714 532.797 309.808C532.766 309.683 532.766 309.714 532.828 309.902C532.891 310.058 532.922 310.214 532.984 310.401C533.109 310.838 533.203 311.307 533.297 311.775C533.453 312.712 533.515 313.43 533.484 314.304C533.453 315.179 534.046 315.959 534.952 316.022C535.763 316.084 536.638 315.428 536.669 314.554C536.794 309.027 534.108 303.438 529.924 299.847C529.269 299.285 528.176 299.566 527.707 300.222C527.083 300.971 527.364 301.877 528.02 302.439Z" fill="#7C596B"/>
<path d="M527.863 311.462C530.986 309.901 534.108 308.34 537.324 306.997C537.73 306.841 538.136 306.685 538.573 306.529C538.886 306.404 538.261 306.623 538.448 306.56C538.511 306.56 538.573 306.529 538.636 306.498C538.729 306.467 538.854 306.435 538.948 306.435C539.822 306.404 540.353 305.342 540.228 304.562C540.041 303.625 539.229 303.25 538.355 303.282C537.699 303.313 536.981 303.656 536.388 303.906C535.42 304.281 534.514 304.718 533.577 305.124C531.641 305.998 529.705 306.935 527.801 307.872C527.364 308.09 526.926 308.309 526.489 308.527C525.709 308.902 525.365 309.87 525.74 310.651C526.115 311.462 527.114 311.837 527.863 311.462Z" fill="#7C596B"/>
<path d="M159.068 377.127C159.068 377.127 158.381 351.835 185.266 356.269C212.15 360.703 226.545 402.513 218.145 416.502C209.746 430.49 192.791 429.991 178.146 418.125C163.471 406.291 158.974 379.157 159.068 377.127Z" fill="#422532"/>
<path d="M210.871 413.566C210.496 413.785 211.277 413.379 210.871 413.566C210.59 413.691 210.278 413.847 209.965 413.972C208.935 414.409 207.904 414.722 206.843 415.003C206.468 415.096 206.936 415.003 206.624 415.065C206.437 415.096 206.25 415.127 206.062 415.19C205.719 415.252 205.375 415.315 205.032 415.346C204.251 415.44 203.439 415.502 202.659 415.502C202.534 415.502 202.44 415.502 202.315 415.502C202.44 415.502 202.409 415.502 202.222 415.502C202.065 415.502 201.878 415.471 201.722 415.471C201.254 415.44 200.785 415.377 200.348 415.284C199.411 415.127 198.724 414.909 197.913 414.597C197.101 414.284 196.164 414.565 195.789 415.377C195.446 416.127 195.758 417.188 196.57 417.501C201.691 419.499 207.904 418.937 212.682 416.22C213.431 415.783 213.525 414.659 213.088 414.003C212.557 413.223 211.62 413.16 210.871 413.566Z" fill="#7C596B"/>
<path d="M202.44 410.35C202.846 413.816 203.221 417.282 203.377 420.748C203.408 421.185 203.408 421.622 203.408 422.09C203.408 422.434 203.439 421.747 203.408 421.966C203.408 422.028 203.408 422.09 203.408 422.153C203.408 422.247 203.377 422.371 203.346 422.465C203.096 423.277 203.877 424.183 204.657 424.307C205.594 424.464 206.25 423.839 206.499 422.996C206.687 422.371 206.593 421.591 206.593 420.935C206.562 419.905 206.499 418.874 206.406 417.875C206.25 415.752 206.031 413.629 205.812 411.505C205.75 411.037 205.719 410.537 205.656 410.069C205.563 409.226 204.782 408.539 203.908 408.633C203.033 408.695 202.347 409.507 202.44 410.35Z" fill="#7C596B"/>
<path d="M149.139 138.103C149.139 138.103 174.4 136.573 170.872 163.582C167.343 190.591 126.002 206.36 111.763 198.429C97.4935 190.498 97.431 173.543 108.828 158.492C120.131 143.473 147.078 138.103 149.139 138.103Z" fill="#422532"/>
<path d="M114.418 191.09C114.199 190.716 114.637 191.496 114.418 191.09C114.262 190.809 114.106 190.497 113.981 190.216C113.512 189.217 113.138 188.186 112.826 187.125C112.701 186.75 112.857 187.218 112.763 186.906C112.732 186.719 112.669 186.531 112.638 186.344C112.576 186.001 112.482 185.657 112.451 185.314C112.326 184.533 112.232 183.721 112.232 182.941C112.232 182.816 112.232 182.722 112.232 182.597C112.232 182.722 112.232 182.691 112.232 182.503C112.232 182.347 112.232 182.16 112.263 182.004C112.295 181.536 112.326 181.067 112.388 180.599C112.513 179.662 112.701 178.975 112.982 178.132C113.263 177.32 112.95 176.383 112.139 176.04C111.389 175.728 110.328 176.071 110.047 176.883C108.204 182.098 108.985 188.249 111.858 192.964C112.295 193.713 113.45 193.776 114.075 193.276C114.824 192.745 114.855 191.808 114.418 191.09Z" fill="#7C596B"/>
<path d="M117.354 182.566C113.919 183.065 110.453 183.565 106.987 183.846C106.55 183.877 106.113 183.908 105.644 183.908C105.301 183.908 105.988 183.939 105.769 183.908C105.707 183.908 105.644 183.908 105.582 183.908C105.488 183.908 105.363 183.877 105.27 183.877C104.427 183.658 103.584 184.47 103.49 185.251C103.365 186.188 104.021 186.812 104.864 187.031C105.52 187.218 106.269 187.093 106.925 187.062C107.955 186.999 108.954 186.906 109.985 186.781C112.108 186.531 114.231 186.25 116.323 185.969C116.792 185.907 117.291 185.844 117.76 185.751C118.603 185.626 119.258 184.845 119.134 183.971C119.04 183.096 118.197 182.441 117.354 182.566Z" fill="#7C596B"/>
<path d="M452.331 202.677C458.638 193.122 470.098 180.507 482.525 181.1C487.521 181.35 491.705 184.16 495.015 187.72C499.074 192.154 503.04 196.213 508.629 198.68C517.528 202.646 527.489 201.74 536.232 197.837C543.663 194.496 551.906 188.532 554.717 180.538C555.56 178.165 551.781 177.135 550.938 179.508C548.347 186.908 539.635 192.435 532.703 195.089C522.056 199.18 510.596 197.618 502.134 189.687C498.2 186.003 495.265 181.631 490.3 179.196C486.897 177.51 483.118 176.885 479.34 177.353C471.659 178.29 464.946 183.099 459.481 188.282C455.578 191.998 451.925 196.182 448.959 200.71C447.553 202.802 450.957 204.769 452.331 202.677Z" fill="#EDFFDE"/>
<path d="M549.096 186.907C549.096 186.907 531.485 144.223 548.534 140.476C565.551 136.729 557.745 178.57 557.745 178.57C557.745 178.57 588.345 160.616 598.244 172.388C608.111 184.191 586.003 204.549 549.096 186.907Z" fill="#E2FFA9"/>
<path d="M298.958 457.937C292.588 447.914 284.813 430.553 292.588 419.531C296.085 414.597 301.518 413.317 306.857 411.35C311.604 409.601 316.069 407.01 319.628 403.356C326.186 396.612 328.933 387.151 328.621 377.908C328.371 370.289 326.342 360.828 320.503 355.395C318.66 353.678 315.913 356.426 317.755 358.143C322.969 363.014 324.624 371.788 324.749 378.626C324.937 388.525 321.19 398.298 312.821 404.012C304.328 409.789 292.962 409.539 287.904 419.843C284.251 427.306 285.625 436.205 288.123 443.761C289.965 449.35 292.463 454.908 295.617 459.873C296.928 462.028 300.3 460.061 298.958 457.937Z" fill="#EDFFDE"/>
<path d="M323.873 362.983C323.873 362.983 277.723 361.672 281.22 344.592C284.718 327.512 319.752 351.711 319.752 351.711C319.752 351.711 315.817 316.458 330.618 312.212C345.418 307.965 355.036 336.442 323.873 362.983Z" fill="#F9FFEB"/>
<path d="M126.439 266.437C126.595 255.758 124.472 242.831 117.196 234.588C111.576 228.187 103.458 227.25 95.5577 229.311C84.7852 232.121 74.481 229.654 67.1744 221.005C62.1785 215.103 57.3699 205.018 59.5244 197.087C60.1801 194.651 56.4331 193.621 55.7462 196.056C53.8727 202.926 56.558 210.982 59.7742 217.008C64.0832 225.064 71.3585 231.809 80.4762 233.807C85.878 234.994 91.2487 234.463 96.5569 233.089C100.803 231.996 105.3 231.528 109.39 233.464C116.104 236.649 119.132 244.455 120.725 251.23C121.911 256.164 122.536 261.347 122.473 266.437C122.473 268.966 126.376 268.966 126.439 266.437Z" fill="#EDFFDE"/>
<path d="M56.9329 203.769C56.9329 203.769 92.6539 180.32 81.6004 168.579C70.5468 156.807 54.6847 192.903 54.6847 192.903C54.6847 192.903 40.6648 163.208 26.9571 167.049C13.2183 170.921 19.4944 198.024 56.9329 203.769Z" fill="#F9FFEB"/>
<path d="M199.474 115.904C210.278 117.434 223.891 117.09 233.009 110.408C240.191 105.162 241.284 97.2937 240.284 88.9879C239.004 78.2466 243.251 68.4733 252.525 62.6967C259.144 58.5438 269.48 55.2028 277.161 58.3565C279.471 59.3245 280.502 55.5463 278.191 54.5783C271.821 51.9554 263.609 53.5791 257.427 55.9522C249.183 59.0747 241.908 64.8824 238.411 73.1258C236.413 77.8719 235.788 83.1177 236.288 88.2385C236.756 93.0471 237.505 97.7621 235.132 102.258C231.542 109.034 223.236 111.376 216.148 112.219C212.494 112.656 208.747 112.719 205.063 112.531C203.908 112.469 202.752 112.375 201.597 112.282C201.285 112.25 199.661 112.063 200.473 112.157C198.069 111.782 197.007 115.56 199.474 115.904Z" fill="#EDFFDE"/>
<path d="M270.635 54.8283C270.635 54.8283 289.432 93.2035 302.484 83.7112C315.536 74.2189 281.72 53.9853 281.72 53.9853C281.72 53.9853 312.944 43.7748 310.821 29.6925C308.698 15.5789 281.033 18.4203 270.635 54.8283Z" fill="#F9FFEB"/>
<path d="M207.998 239.709C206.905 239.865 208.092 239.709 208.342 239.678C208.997 239.615 209.684 239.553 210.34 239.49C212.495 239.334 214.649 239.303 216.772 239.397C221.862 239.584 227.639 240.333 231.823 243.518C237.631 247.921 235.695 255.446 235.289 261.722C234.82 269.31 234.539 277.428 237.225 284.704C240.41 293.322 247.404 298.567 255.803 301.69C258.176 302.564 259.176 298.786 256.834 297.912C248.622 294.852 242.283 289.419 240.066 280.738C238.036 272.745 238.942 264.158 239.566 256.008C240.066 249.732 239.192 244.018 233.759 240.115C229.294 236.899 223.548 235.868 218.178 235.525C214.431 235.275 210.621 235.4 206.905 235.9C204.47 236.305 205.532 240.052 207.998 239.709Z" fill="#EDFFDE"/>
<path d="M218.927 237.429C218.927 237.429 216.366 258.475 206.562 263.939C196.788 269.372 187.889 263.596 186.703 257.507C185.516 251.418 191.667 239.084 205.313 237.429C205.313 237.429 183.33 231.06 184.767 220.068C186.484 207.079 214.087 207.703 218.927 237.429Z" fill="#DEFF9F"/>
<path d="M116.448 370.726C117.041 378.563 119.164 387.337 124.067 393.613C127.408 397.86 132.216 400.264 137.681 399.608C141.678 399.109 145.581 397.485 149.452 396.424C153.761 395.206 158.164 394.113 162.661 393.707C173.527 392.708 181.801 397.267 187.64 406.384C188.983 408.476 192.386 406.54 191.013 404.417C186.704 397.704 180.833 392.115 172.84 390.335C165.19 388.649 157.259 390.272 149.827 392.271C143.738 393.894 135.963 398.172 130.031 394.082C125.784 391.115 123.661 385.713 122.287 380.936C121.35 377.626 120.601 374.192 120.351 370.788C120.164 368.228 116.261 368.228 116.448 370.726Z" fill="#EDFFDE"/>
<path d="M120.413 381.999C120.413 381.999 140.459 375.036 143.707 364.326C146.954 353.616 139.398 346.154 133.215 346.278C127.033 346.403 116.26 355.021 117.54 368.698C117.54 368.698 106.643 348.558 96.2138 352.305C83.88 356.707 90.3748 383.561 120.413 381.999Z" fill="#DEFF9F"/>
<path d="M492.612 364.858C485.992 372.79 471.816 384.905 462.636 374.07C456.329 366.638 450.989 358.239 442.59 352.931C434.159 347.591 424.667 347.903 415.612 351.526C413.301 352.431 414.3 356.209 416.642 355.304C427.602 350.932 437.375 352.494 445.993 360.581C449.959 364.296 453.363 368.574 456.704 372.852C459.358 376.256 461.793 379.784 465.946 381.439C476.812 385.81 488.896 375.412 495.36 367.637C496.983 365.702 494.236 362.923 492.612 364.858Z" fill="#EDFFDE"/>
<path d="M485.836 374.256C485.836 374.256 473.533 356.988 477.093 346.372C480.652 335.755 491.113 334.038 496.077 337.754C501.042 341.438 504.82 354.678 495.859 365.107C495.859 365.107 516.373 354.99 522.743 364.076C530.237 374.786 509.41 392.928 485.836 374.256Z" fill="#DEFF9F"/>
<path d="M478.154 275.961C471.284 277.085 460.605 277.397 454.204 272.807C448.209 268.529 450.02 260.879 450.239 254.572C450.489 247.016 450.52 239.053 447.71 231.903C444.337 223.347 437.187 218.195 428.694 215.291C426.321 214.479 425.29 218.258 427.663 219.07C435.938 221.88 442.464 227.126 444.899 235.744C447.179 243.706 446.492 252.324 446.055 260.505C445.743 266.781 446.742 272.401 452.237 276.18C456.734 279.271 462.51 280.145 467.85 280.364C471.628 280.52 475.468 280.332 479.215 279.708C481.651 279.302 480.589 275.555 478.154 275.961Z" fill="#EDFFDE"/>
<path d="M467.225 278.554C467.225 278.554 469.223 257.446 478.84 251.732C488.489 246.017 497.513 251.575 498.855 257.633C500.198 263.659 494.39 276.18 480.807 278.21C480.807 278.21 502.946 283.987 501.822 295.009C500.479 308.03 472.845 308.123 467.225 278.554Z" fill="#F9FFEB"/>
<path d="M328.493 199.833C330.429 194.743 333.958 189.248 337.861 185.095C341.327 181.379 345.573 178.288 350.476 176.82C355.534 175.321 360.187 176.914 365.214 176.321C380.857 174.478 378.515 149.436 377.36 138.695C376.798 133.324 375.986 127.922 374.831 122.645C374.3 120.21 370.522 121.24 371.053 123.676C373.676 135.385 375.549 148.655 373.426 160.552C372.864 163.737 371.958 167.203 369.804 169.701C367.431 172.511 364.308 172.636 360.905 172.23C350.913 171.012 341.889 175.072 335.082 182.316C330.679 186.999 326.995 192.745 324.715 198.771C323.841 201.144 327.619 202.143 328.493 199.833Z" fill="#EDFFDE"/>
<path d="M374.457 130.983C374.457 130.983 314.287 124.426 331.023 99.5399C349.165 72.5618 372.552 120.71 372.552 120.71C372.552 120.71 365.277 81.7418 383.824 80.2743C403.902 78.6818 414.081 99.0091 374.457 130.983Z" fill="#DEFF9F"/>
<path d="M258.738 328.324C258.738 329.823 257.52 331.041 256.021 331.041C254.522 331.041 253.305 329.823 253.305 328.324C253.305 326.825 254.522 325.607 256.021 325.607C257.52 325.607 258.738 326.794 258.738 328.324Z" fill="#F8AB1D"/>
<path d="M125.064 319.457C125.064 323.267 121.973 326.327 118.195 326.327C114.385 326.327 111.325 323.236 111.325 319.457C111.325 315.648 114.416 312.588 118.195 312.588C121.973 312.588 125.064 315.648 125.064 319.457Z" fill="#F8AB1D"/>
<path d="M402.464 306.31C404.982 306.31 407.023 304.268 407.023 301.751C407.023 299.233 404.982 297.192 402.464 297.192C399.946 297.192 397.905 299.233 397.905 301.751C397.905 304.268 399.946 306.31 402.464 306.31Z" fill="#F8AB1D"/>
<path d="M436.281 431.303C436.281 435.143 433.158 438.266 429.318 438.266C425.477 438.266 422.354 435.143 422.354 431.303C422.354 427.462 425.477 424.339 429.318 424.339C433.158 424.339 436.281 427.462 436.281 431.303Z" fill="#F8AB1D"/>
<path d="M472.687 406.603C472.687 407.29 472.125 407.852 471.438 407.852C470.751 407.852 470.189 407.29 470.189 406.603C470.189 405.916 470.751 405.354 471.438 405.354C472.125 405.354 472.687 405.916 472.687 406.603Z" fill="#F8AB1D"/>
<path d="M562.992 272.493C562.992 274.616 561.274 276.365 559.12 276.365C556.997 276.365 555.248 274.647 555.248 272.493C555.248 270.338 556.965 268.621 559.12 268.621C561.274 268.621 562.992 270.338 562.992 272.493Z" fill="#F8AB1D"/>
<path d="M406.275 132.575C408.362 132.575 410.053 130.884 410.053 128.797C410.053 126.711 408.362 125.019 406.275 125.019C404.189 125.019 402.497 126.711 402.497 128.797C402.497 130.884 404.189 132.575 406.275 132.575Z" fill="#F8AB1D"/>
<path d="M522.242 170.233C522.242 172.45 520.462 174.23 518.245 174.23C516.028 174.23 514.248 172.45 514.248 170.233C514.248 168.016 516.028 166.236 518.245 166.236C520.462 166.236 522.242 168.016 522.242 170.233Z" fill="#F8AB1D"/>
<path d="M361.904 247.577C361.904 250.762 359.343 253.322 356.158 253.322C352.974 253.322 350.413 250.762 350.413 247.577C350.413 244.392 352.974 241.832 356.158 241.832C359.312 241.832 361.904 244.392 361.904 247.577Z" fill="#F8AB1D"/>
<path d="M364.807 323.608C364.807 325.419 363.34 326.856 361.56 326.856C359.749 326.856 358.312 325.388 358.312 323.608C358.312 321.797 359.78 320.361 361.56 320.361C363.34 320.33 364.807 321.797 364.807 323.608Z" fill="#F8AB1D"/>
<path d="M283.622 377.47C286.916 377.47 289.586 374.8 289.586 371.506C289.586 368.213 286.916 365.542 283.622 365.542C280.328 365.542 277.658 368.213 277.658 371.506C277.658 374.8 280.328 377.47 283.622 377.47Z" fill="#F8AB1D"/>
<path d="M242.718 205.641C242.718 209.139 239.877 211.98 236.38 211.98C232.882 211.98 230.041 209.139 230.041 205.641C230.041 202.144 232.882 199.303 236.38 199.303C239.877 199.303 242.718 202.144 242.718 205.641Z" fill="#F8AB1D"/>
<path d="M162.908 201.957C162.908 204.736 160.66 206.984 157.881 206.984C155.102 206.984 152.854 204.736 152.854 201.957C152.854 199.178 155.102 196.93 157.881 196.93C160.66 196.93 162.908 199.178 162.908 201.957Z" fill="#F8AB1D"/>
<path d="M80.881 305.405C80.881 308.371 78.4767 310.744 75.5416 310.744C72.5752 310.744 70.2021 308.34 70.2021 305.405C70.2021 302.439 72.6065 300.065 75.5416 300.065C78.5079 300.065 80.881 302.47 80.881 305.405Z" fill="#F8AB1D"/>
<path d="M50.4683 252.01C50.4683 254.165 48.7197 255.914 46.5652 255.914C44.4107 255.914 42.6621 254.165 42.6621 252.01C42.6621 249.856 44.4107 248.107 46.5652 248.107C48.7197 248.076 50.4683 249.825 50.4683 252.01Z" fill="#F8AB1D"/>
<path d="M86.8448 203.486C86.8448 205.141 85.5021 206.453 83.8785 206.453C82.2235 206.453 80.9121 205.11 80.9121 203.486C80.9121 201.831 82.2548 200.52 83.8785 200.52C85.5021 200.489 86.8448 201.831 86.8448 203.486Z" fill="#F8AB1D"/>
<path d="M258.862 450.693C258.862 455.22 255.177 458.905 250.65 458.905C246.122 458.905 242.438 455.22 242.438 450.693C242.438 446.165 246.122 442.48 250.65 442.48C255.177 442.48 258.862 446.165 258.862 450.693Z" fill="#F8AB1D"/>
<path d="M318.564 474.83C320.529 474.83 322.123 473.236 322.123 471.27C322.123 469.304 320.529 467.71 318.564 467.71C316.598 467.71 315.004 469.304 315.004 471.27C315.004 473.236 316.598 474.83 318.564 474.83Z" fill="#F8AB1D"/>
<path d="M199.286 461.122C199.286 462.34 198.286 463.308 197.1 463.308C195.882 463.308 194.914 462.308 194.914 461.122C194.914 459.904 195.913 458.936 197.1 458.936C198.286 458.936 199.286 459.904 199.286 461.122Z" fill="#F8AB1D"/>
<path d="M86.9068 271.776C86.9068 274.899 84.3776 277.459 81.2239 277.459C78.1014 277.459 75.541 274.93 75.541 271.776C75.541 268.622 78.0702 266.093 81.2239 266.093C84.3464 266.093 86.9068 268.622 86.9068 271.776Z" fill="#F8AB1D"/>
<path d="M412.112 170.452C412.112 173.48 409.645 175.947 406.617 175.947C403.588 175.947 401.121 173.48 401.121 170.452C401.121 167.423 403.588 164.956 406.617 164.956C409.645 164.956 412.112 167.423 412.112 170.452Z" fill="#F8AB1D"/>
<path d="M589.095 216.663C589.095 219.098 587.128 221.066 584.693 221.066C582.257 221.066 580.29 219.098 580.29 216.663C580.29 214.227 582.257 212.26 584.693 212.26C587.128 212.26 589.095 214.227 589.095 216.663Z" fill="#F8AB1D"/>
<path d="M159.068 56.4804C159.068 60.5084 155.79 63.787 151.762 63.787C147.734 63.787 144.455 60.5084 144.455 56.4804C144.455 52.4524 147.734 49.1738 151.762 49.1738C155.821 49.1738 159.068 52.4524 159.068 56.4804Z" fill="#F8AB1D"/>
<path d="M48.345 125.924C48.345 127.486 47.0648 128.766 45.5036 128.766C43.9423 128.766 42.6621 127.486 42.6621 125.924C42.6621 124.363 43.9423 123.083 45.5036 123.083C47.0648 123.083 48.345 124.363 48.345 125.924Z" fill="#F8AB1D"/>
<path d="M351.348 30.5956C351.348 34.9983 347.789 38.5579 343.386 38.5579C338.983 38.5579 335.424 34.9983 335.424 30.5956C335.424 26.1929 338.983 22.6333 343.386 22.6333C347.789 22.6333 351.348 26.1929 351.348 30.5956Z" fill="#F8AB1D"/>
<path d="M361.217 56.0448C361.217 57.4499 360.093 58.574 358.687 58.574C357.282 58.574 356.158 57.4499 356.158 56.0448C356.158 54.6397 357.282 53.5156 358.687 53.5156C360.093 53.5156 361.217 54.6397 361.217 56.0448Z" fill="#F8AB1D"/>
<path d="M306.23 65.5363C306.23 68.409 303.919 70.7196 301.047 70.7196C298.174 70.7196 295.863 68.409 295.863 65.5363C295.863 62.6637 298.174 60.353 301.047 60.353C303.888 60.353 306.23 62.6637 306.23 65.5363Z" fill="#F8AB1D"/>
<path d="M464.101 61.0076C464.101 63.5055 462.071 65.5351 459.573 65.5351C457.075 65.5351 455.046 63.5055 455.046 61.0076C455.046 58.5096 457.075 56.48 459.573 56.48C462.071 56.48 464.101 58.5096 464.101 61.0076Z" fill="#F8AB1D"/>
<path d="M564.364 144.754C562.335 148.282 557.807 149.5 554.279 147.47C550.75 145.441 549.533 140.913 551.562 137.385C553.592 133.856 558.119 132.639 561.648 134.668C565.207 136.698 566.394 141.225 564.364 144.754Z" fill="#F8AB1D"/>
<path d="M584.692 160.335C584.692 161.552 583.693 162.552 582.475 162.552C581.257 162.552 580.258 161.552 580.258 160.335C580.258 159.117 581.257 158.118 582.475 158.118C583.693 158.149 584.692 159.148 584.692 160.335Z" fill="#F8AB1D"/>
<g opacity="0.25">
<path opacity="0.25" d="M469.316 271.964C322.154 286.39 149.013 266.187 69.1715 246.953C37.8531 239.397 18.2752 222.161 6.00391 203.957C9.68842 229.498 33.7002 371.821 121.941 444.324C219.081 524.166 329.711 518.389 422.042 474.144C514.373 429.899 580.664 351.306 594.184 232.839L595.526 229.654C583.037 245.829 551.094 263.939 469.316 271.964Z" fill="#D8D8D8"/>
</g>
<path d="M598.024 208.859C597.4 207.922 596.713 207.017 596.057 206.143C594.933 208.953 593.466 211.638 591.748 214.167C593.59 219.288 594.028 224.909 590.811 228.406C583.723 236.118 573.607 240.989 564.146 245.142C555.028 249.139 545.567 252.855 535.918 255.321C522.898 258.662 509.409 260.38 496.076 261.879C477.278 264.002 458.356 265.345 439.465 266.344C393.471 268.811 347.384 269.373 301.358 268.592C258.237 267.874 214.991 266.188 172.119 261.41C163.938 260.505 155.789 259.443 147.67 258.163C129.591 255.321 111.98 252.699 94.2448 248.202C72.2626 242.613 51.061 236.399 33.6376 224.784C26.4247 219.975 22.1157 215.073 20.4608 209.765C18.2126 208.235 15.3399 206.205 14.4344 205.362C10.063 201.24 8.15825 195.027 5.94129 189.593C5.87884 189.469 5.84762 189.312 5.78517 189.188C5.50415 189.531 5.16067 189.812 4.87965 190.187C-3.92572 201.709 7.06538 215.791 15.3087 224.128C28.9227 237.929 48.3445 244.955 66.6109 250.232C87.2817 256.227 108.577 259.943 129.841 263.19C137.897 264.408 145.953 265.563 154.009 266.812C195.069 273.244 236.911 275.243 278.408 276.554C326.182 278.053 374.018 277.959 421.792 276.148C458.731 274.743 496.388 273.213 532.796 266.219C551.187 262.69 569.672 256.071 585.722 246.454C592.591 242.332 600.397 236.805 602.958 228.78C605.081 221.63 601.99 214.761 598.024 208.859Z" fill="#D8D8D8"/>
</svg>
